<mxfile host="app.diagrams.net" modified="2023-10-17T09:38:40.569Z" agent="Mozilla/5.0 (Windows NT 10.0; Win64; x64) AppleWebKit/537.36 (KHTML, like Gecko) Chrome/118.0.0.0 Safari/537.36" etag="fdAyRob-jbzW8WCdv6pd" version="22.0.4" type="github">
  <diagram name="PÃ¡gina-1" id="1hV6uQM0qdAnyKNSNhBb">
    <mxGraphModel dx="1434" dy="768" grid="0" gridSize="10" guides="1" tooltips="1" connect="1" arrows="1" fold="1" page="1" pageScale="1" pageWidth="827" pageHeight="1169" math="0" shadow="0">
      <root>
        <mxCell id="0" />
        <mxCell id="1" parent="0" />
        <mxCell id="6mBwAXPumIQYJJN-8M09-1" value="" style="shape=image;verticalLabelPosition=bottom;labelBackgroundColor=default;verticalAlign=top;aspect=fixed;imageAspect=0;image=data:image/png,iVBORw0KGgoAAAANSUhEUgAAATcAAAFLCAYAAACzwsuIAAAgAElEQVR4Aezdh7ftRXk//u+/lfVbyc+sFRM1Gk0sydcQVKwRO2CvWBAVjUpTbHQERDGKXYqAvaBYKWIBsXFpt5w63/Wafd+X4cM+9Z59zj77zKw1e+Yz80x7ZuY9z9T9f0pXnQOdA50DM8iB/zODZepF6hzoHOgcKB3ceiPoHOgcmEkOdHCbyWrtheoc6Bzo4NbbQOdA58BMcqCD20xW694r1PLycqG76hwIBzq4hRPdnCkOdKCbqercVGE6uG2KbT3QNHMgUtzS0lKX5qa5oiactw5uE2bwTkW/uLhYO3Y6eszV8hMaZgsMcU9Y360a+rd+sQ/DcOe2sLBQ0wrd0JSP0LRxtPaEUWa08WOfm5s7Ej503dwbHOjgNmP1rGNHAwYdfpwKzdAUhqbiJ47WrfXjjq5V7XfiSHh0bRj+vqUx1MDp0KFDVQMp+uDBg0d0vkNz4MCBQu/fv7888MAD5b777ivz8/NVJx9tPrt9tjnQwW3G6hdQ0Pfcc0/561//Wv785z+Xv/zlL6vqu+++u/zpT38qv/3tb8sdd9xRbrrppvLd73633HjjjeXqq68uX/nKV8qVV15ZPvWpT5XPfOYz5fLLL6/mVVddVT73uc9VvyuuuKK6ofvsZz97xO2Tn/xkOf/888vZZ59dTj/99PI///M/5b3vfW857bTTyrve9a7ynve8p36/+93vPmJ///vfX2h+b33rW6s+5ZRTytvf/vbypje9qbzhDW8ob3zjG8ub3/zm+n3yySeXd7zjHeWd73xnDfO+972vxv3Rj360AiPQbCW6GavyXpwVONDBbQXG7FZnEgpJ5kUvelE599xzy2WXXVZBCSCtpC+99NJKd+GFFxb6Ix/5SDnnnHPKhz/84fKhD32o6jPOOKO6iwN4Ab1vfvOb5Tvf+U75/ve/X374wx+WH//4x+Xmm29+mOYGLLnH/pOf/KT89Kc/LT/72c/Kr371q3LbbbeV22+/vfz617+u4Pqb3/ymAu3vf//7ctddd5U//OEPBQDTrR1wA/B9+/ZVKY0ZO6ntNa95zRGpDbh1tbc40MFtBuvbdO31r399nb6N69SZorVm6NopIzt35jjVhl/JX9iER08xWzf2Nq7YQxv6li7h23TRJQzz5S9/eZ2mjqNtw3X7bHKgg9sM1qt1KdM2608BrbaYQ/Dg17qFNm7jTIDRajRR4+i5oY8fOwkz4Om7tbe0mVZya9flkt5K5ite8YqahnBd7T0OdHCbwToHGtajSHDjOnYABlAERACLbyr+8WMmLnQBoYRJPOjoxNG6ixO9BX7uTHHS7Ik3bklDXOKMf9yTTk1shZ+Am7S72nsc6OA2g3UOLN7ylrdU4BgWT0cHDAAGULQdf/iNJvSkQN9U3AI4ARrfCYNOPgJM7PxoAIb2zjvvrDubaAJw2fEMDXq7nzZF7r333jrVTpzDsg2/TzjhhCq5xb0ta9y6Obsc6OA2g3ULKOwgAohxHZobGovv3/rWt+qmgMV+xydsDNgssJhvevuDH/ygfPnLX660999/f/22e/qlL32pfP7zny8///nPy9e+9rXyv//7v5VGmt/+9rfLddddV+PIDqvd1BtuuOHI8YxvfOMbNdwXv/jFuisbMLMRIH1gBgBJoTYelOdHP/pR/QZ4AdTVqg+4KUPUOF7Er5uzx4EObrNXpxW4HKEAGEOlgwMH4AaQ7H4CMLuhdh+BjiMXgA9NjoM8+OCD9ajHJz7xibrz+ctf/rKwX3PNNcXRi//+7/+u4Cjur371qxX4fve739Vd20suuaTYIXW0A5gCUUc9pPuLX/yiXHvttRX05NdOKalTfqQvvltuuaU861nPqrupQG29IHXiiSfWdcf10g951b93Nwc6uO3u+hube6AAoEg9Q6WjZ1rnzJnzZoCMBEZacr7NmbEo4MPPMYynPvWp9VhHpCzn4hzNcH7tOc95Tk1P/N/73veq9OXsnB1Lkp00nE/7+te/Xule97rXlZe97GX1CAhQNR2VX4B3wQUXVL9bb7215lU6jrb88Y9/TLaquRZonXTSSR3cHsaxvfXRwW0G6xu4OfQ6DtwUlzQEoJw1M3Uj4ZCO0Du3FnADHsDNtBDoPPrRj65TTWtg0jDlA5TA7XnPe14NL4xzbaaywA2AAZlnPvOZVVLMdFN6dnSf+9znViA0HbWm9ulPf7pKciQ7Z+6kQ5p74QtfWAG2rS7lWG16Km0SpzytBYRtvN0+Gxzo4DYb9fiwUgAEp/XHgZtODhBo4EQiO++888rjHve4KhmRuqxvhQYI5dDtYx/72Ap24pVGpK0PfOADddoYsHOo15qbWxKvfvWri2mpGwhuJgBGUpz1O/Qf//jHy0te8pLqJh23GQDsxz72sTo9dYjXxgNwIyVSgBkQrgVuwgBNZUbb1d7iQAe3GaxvwHPqqac+bDG9LSbgAlA2BQAQsDnuuOPK9ddfX28LmNI6+Q+IAI3bBYDIWphbC6QvftzZXcP6z//8zyr92YiweWBNzjTy+OOPr9IYYLIOCOika02N5OhbeqQ801HgmrW3Y445pkqFgPJJT3pSXR80xbVOaKOCUhZqnGT20pe+tIIov3H+NWD/mVkOrAvcesPYXfUfcBsnuSkJf9rUz11RgHHmmWdWoDONAz4W/0lk7o4CHlIa4Lr44osrMJGsrM+RjGhraaQw1724i8daGXq7nwAL4AEqoGjn1DWuL3zhC/UKFoAFrtKwSypOU1v0JDq0Nh5scLj2ZaoaCXKl9mlaSkKcNLhFyt1drWT2c7sucFN5KzWg2WfR7ivhauCmHjOds2tpekcDAeH4ASKSG6kMTcCQCeTQAh90dPwBGgkPOGkzpDsAFBru7OhaU3jhuCVvTO7cWhDjljyKj50a1z63A9xafu6+ljLbOV4XuKXBjWtAs82e3Vk6ALDStDR1CHwCDuzCxC0gxOSW+m9BhR8lPvaEEQ87Wpo9cSQNYZJm3EIDzBIGqMU9efAdnfRbs2bq8I+d2u2Q3No0u316OLAucNMY0ymmJ+s9JytxADjYUCBlAYKhauuzrde4xy3fwrf2YXzxj/swfMK2ZgCKGfqEb+Nrw8Qe/3Hh2jjsApMwV0qjpe322ePAusBt9oo92yVqwW0tAJhlTrTgNg7kZ7nsvWyl/ynzLDYCUzgbAqZ4u0FNCoCBm/VE8Xdw2w0tYWvz2CW3reXnVMQG3Nw8sGY1KeCYioKukQkHlB11wQM86WpvcaCD2wzWt2mpJ7yzIK9ztzprUAG+1q+1Y81K3y3bQhO39jv21ky8bT5a/9gTX2vGL2bi8j1UNhSAW9IZ+vfv2eZAB7cZq1+dHKi5DQDkhp0+oBBzpeInHBM4tJoUZJdTOqa+jnE49uGIBzPaTqXzazSQiXbMhM7/OzCdpWu1A8D5dgDYLQUX8d03dR3MKyYOGDvz5iycs3S0M3su7jOf//zn1zTld63yrsSH7r57OdDBbffW3dic68SAxysddkz9oQrt8Uo3BNwGcHfU3VPHRdCwc4vmxg+tsP6L4FWvelW9h+qqlEvsNDt3/rSL8eLIVSvSo8v5DgubJrN7QYR2Q8FtB//z4KCvWw0ODDtA7Bkktx4c8KW5e8HEn8+4nYDebQaHhml/BOM/H/K/D9z8MY17qwA1IB/AHsu47jhzHOjgNmNVSsICbg6wAhHPErmqRJrxVps/Y3Fz4O677yr33DP6c5VIVyuZDvNGyorUxQQc+WYX3gL+vn33VFP89967b3Qg+K8em3Sn9L7ywAP3VymPpEc7shKpjxRIIlxJR0rMAWF03MSRMDkrB3zlHU+62nsc6OA2g3Wuk5OeAACpBdhFeinF+ttCWVyy2bBQlstCmZs/UJaXnfw/VBYWD5al5dHiu+kcYEhYkg/7aHHedNV0bzRlPXToQJmbO1gWF8Xj1sKBMr9wsMYnTlpapYibfvj5tsQtfmn6ptnzvdGqesELXlDBTbjEt9E4Ov3u5UAHt91bdyvmHPhkQyGgASCoERjNlfkF4HOggs6hQw9W+9z8/nJo7sGyuDRfwUA8gJFkFJAZASV/fv7gxf80uFbl2pXbBYDtYJmbf7AsAsqlQzVu8S4tO5oC4OiHpKmAGGALuEkvoCwfaDaqTM1Jll3tTQ50cJuxegcCwMCaGQkuoMCkSVsLCyMJDZgBuLm5/VWSI22R4haXRtITgAnYBGjEOQIbd1BHgNaCG8A7ePDBCpKArUqES4fKwbkHytJSC24jsBrlaSSdmU5mSik9Ov7S3KjyIglwE0dXe48DHdxmrM515ICbdaiAQ9xJYQcP+su/kYR14MD95S9/+WO5554/lXvv/Wu5887f1bUxYa1X2an05ptv8QI7JkA7cODBKr2R4thNTcX74IP3lwMHXLgHhPNlcWmuLCyR8ObLwuJI0htNjx/6RyzxervNW3DW7azBjdYG764vhWwG3Ky5WSvs4DZjjXydxengtk5G7SYyQGFaCsh07GgA4V/dP/KRc8q1115dAcki/7nnfrx8//vfLdddd2259NJLype//KX6z+/eWvPskHfcHMFIPKMp6mhaCrxMMRcWSFrAbDRFHa29uYzvOErW5kZ+hw6NprnyI4+kNXE61mGH1jEQzxxJ31NK8kBi3KjynlsHt41ybXboO7jNTl0eKYnpnA2FgNsIjEaL9HZL3/a2t5ZnP/u48tOf3lyB5ZxzPlxuu+3WcuaZZ9SHJXM8QxzOl3kd9/bbb6+S1ejM2l/LzTf/uILW/v0PlNtuu6XceustZd++v5bbb7+1mtL51a9+VYEqz5T/+Mc31XS+973vVtDxnJInyT1hDryY0vRWm6MiAPpDH/pQueiii+pO7JECHrZEIgvoDv0dV2nBLfRDukl/71S6ky7XtMffwW3aa2gT+QNureRGQsq0zoORHoV0VszZNJKcM2Nez/DPVM6ZARwv4lqQP/vssytAAUr/jOXMmanjccc9sx7p+MpXvlT/Aeuss84o119/XfnEJz5Wfvazn9bHJT0x7mFK59+Ecx7NubUrr/xM/Zu+/EuW82/yBdxIbgDVmbazzjqrPjcuT3Z+WwUwlGk14MhuaWhitvFM2t4OLNLfiTxMuozTGn8Ht2mtmaPIF3DLk0c6kw5GMf2TFYCxhma66QCvV3gtvAMw62zZNHADAMABKRIb8PECr/8PfcITHl9uuumH5fzzz61+JD/Sm++f//xndYr5jGc8o8brtoQ4AZ3L7P7v1JoaiQ7Qvu1tb6s3DrzgK9/O5j3+8Y8vT37yk8sTn/jEepCYBNYq5VLOlK31i90hXuUJoMSM/3aYlgho+ZT+TuRhO8o5jWl0cJvGWjnKPOlMbgqQdnQmHSudi4TkBgBwM/1zc8E/U5HcgAVpyIFc0pvrU+if8pSnVInOOpg/kwFK//qvTyrf/OYN5bTT3lM3HBzO9UT4ued+ov6JDCnQf426QkUyA24AFJi98pWvrHkgybkm5QUTwEkidJNBmqbGbi2YEjt8bF2uVcrVSm7jQMM/cu30tFS+otv8d/vkOdDBbfI8nmgKOk6AKwnp9CQy4Ba/dH5/1ecKE9ABOP4d/tnPfnYFHuFoEhxQAS4AzcK8/zzwhy6kMO4kK36kP3/RZ2priiucmxH+ls9/mQJC4EWCsgYHxEhm7oGS0kw9AZqrWDYUTKet1/lXe1ImwBNWOaKURT6B+GpquOa2Gm33mz0OdHDb5XWq07fTHsXR8QFHC24BA7uegIVJegNkQMS0E2iQkLgBJetupqA0ac4RDW6kOpfVfZP+7GgCPpIe6c3aHCATLxBlJ7Whd9xDGIBlV9RGhW9TVmn4jp8NBxKlKWyALGDumw5oj6tGTx61kts4mu42uxzo4LbL61bnjk5RAB4JCHixR+phAi+a1MY/01FxmJYyASENVNAFGIFeq/kBGCZAQs8/7vykIT1xx+SPjht/4eStDceNX8LJVxQ7evlaTb3iFa+oAIq+Db9amO43Oxzo4LbL63Jcp9XxTQWBQ4CAWzQQCXCQ7oBOAIw9UlEAhAlkAjTCACd03PgnDFP84kHnO+lKI/lhF5bJnzs7LUzM0AzLmXhUH/vQn7vHAxxADk219J89w4EObjNY1YDBOhYAahUACIAENAARe0BIGDQBjNbkHvqAyRCY0IgDXeJEsxPKDQXglrzuRB56mjvHgQ5uO8f7iaUMYFpwS+duJShXm2wA0NbfAJLzZdbEhuDmmwaCwtnNDI1CsIubP1CzJide30lzYoVdJeIXv/jFHdxW4c+se3Vwm8EaBjZDcANw3IGYf4W3o+lYhoO0Hpwk4QAlwEXianVASlhvw3nAEmiJjx8TqJmKMh1D8Q/xCRdw3W5WB9zktau9x4EObjNY58Ama26KF2Bjep7bQrsjFugA0jXXXFMlrTvuuKOCHEkOyNm9tGtq19JuKvC79NJLy8knn1xBDJ0dUdIeMBS34yFuGbiRAOgAy06BmzU3F/+lv1N5mMHmtWuK1MFt11TV+jKqEwMU4GZBPx07pue7P/jBD1YwAj5oHOFwLMMdTsc6SHaeTHJE4/TTTy+33HJLva7lTJxrWw7+omdHT5oDIoAPrbQ/85nPHJHcdkpyclhYvqidysP6aq1TTYIDHdwmwdUdjHMlcJMlfv6LALiR2EwbmY6DOIMGkFyNAlr+OQq4ASoSm2tT1uScYcsBYXc+P/3pT9f7p249CAswP/KRj9S7oaaxOym5uTbWwW0HG+MOJ93BbYcrYKuTHwdu0ojkRvryiKObClkjc8DWOTVAZa3MbQPgRgpzXs7U85hjjqlTVlNYa2r+iYqfmwuuSjnUCwiBiZc8/EFLAHSnpCYPA2S31BS8q73FgQ5uM1jfwCT/oRBQS+cmpQEeAEXacrfTe2nWzfxrFIBzgd1ivLufAMyVKXYSn2mqzQo3CWwsmMJ6nsgNBfdOAZ2L+KarztLJy06B22tf+9qJSW742tV0c6CD23TXz6ZyB0zaNbc2En6mjjYMrL+ZZo7eaLun3HjjjdXdOpwrU2hy80AY0lpeDxEP8OJu+pnNCXbaBsNOA4CnloA2tZV5yYDR8rXb18eBrayHtVLs4LYWh3ahP6AhXeWGwrAI6ZymjWhpYJU1OMDErwUpftzR7RZlVzfgtlX5Du/wYKvi3C38PJp84tV286uD29HU2JSG1YhWAjedkz/wSoMLwMUv7kx+AbW2Y09p0R+WLe/EBdzkfStUeLJV8W1FnqY9DrzK+ut25rWD23Zye5vS0gGtuUVya0EpnZNJB7jY0cWNpBaJjnskN26+x6mV3MfRbodbC25blR5+mYqHX1sV76zHk7a0neXs4Lad3N6mtHQ8GwE55zZMFgjppJ4DyqsgAS1hAVnAjMnNcRCHfH0Lzy0Nltlqfmh2Guxsmji+ErUV+UnZE2c3p5cDHdymt242nTPg4j03zwYNO3Q6J5Cyy+kIR7sh0AIWyc9hXUDofJx33YSLEhd6/qYdvhM/d/adVM7jAbfkI+ZO5qmnvX0c6OC2fbzetpSAG6nFtalxHRoYOefmpoEnwElvplq0c2rOwgE2wPf617++0vp2FcsREFe3SIUeovQtvMcmHQL2ii4ApOVjJ1X+bCY8iLmTeeppbx8HOrhtH6+3LaWAG9AZdmjfgMdtAufXTF+94EHKc2gXoAEpV6n8A5XDvADLOTdPgbu1ADiZ/kAGvYO/biu4hO+cGz+SHOltJ5U1Ny8Dd7U3OdDBbZvrvQWb1r6V2QAqpqWuVFHSoYEeDczcQnCA93Wve10FMlKe2wfXXnttvWuaq1bAz1m3c845p/7fATrAB8Qc3CXFOVPnwjwwdTvBebnsjiXdrSzfeuMCbs7mpfzrDdfpZoMDHdy2uR7T2SfZ4Uw7gRKwoQCa9IAeu7/2I50BJpfl/UEM0HIB3toaRfpid4HewV1SnDU6cZLwnvCEJ9RDwCQj/1UALIEp4DNFNcWN9LZTEhweyN8keV2Z1X+mkgMd3KayWo4uU8Ak4JaOzQRs1tpcs7JT6tvdy6c//en1H61MM/0dn3+zcg2LNHbSSSdVELQ257oVAPMUEknOlFQc1uhISaanrnQBQwDLbydVC247BbA7Wf69nnYHtx1oATr+JBfcdWQSVzstBTTcbRh4dw2okaw8d+RdNtO3rLsBQGFJc45/uJ5FkiOx2VmVdxsKdKafwDLXs+IuPekC1p1QeODl4AD7TuShp7lzHOjgts2819ECbpPq9ABFxyZhSSPpBOCSPhMAAau4sdsZzdUr7pli8kMfnbiZQA5d4txmto5Nzn+sAuXkcyxRd5xZDnRwm7Gq1ZGBmCmZ6aHvoUpnH/olbEAwdL7pIX3iTbiV/EO33aan1IFbV3uTAx3cZqzeAzTrBTeg1SrhA1KtPTTxy/fQXMt/SD/J7w5uk+Tu9MfdwW3662hDOQQuACu7nOMAaqUIQ7secxjHMMzQfye+bYJkWroT6fc0d5YDHdy2kP86+E4reQBuzrmZlmY62YJP3Nab1zZs7MKuFE/yEH/frUocK/m3tOyhH5pDumF8jq4AN2uEwzwMw/bv2eNAB7ejrNO2wx1lVFsSXH50ZlMy90KTv0S+nm+06GLGnjjiDkzofIeOaWMhYBOa0MU99DWCVX42S+fVYAeW2w2QVZLpXjPGgQ5um6xQHa7tdK19k1FuSTD5AB5uCjjKsVNKHoBKu3vKzY6rnVh5c/TEURRHTdyCcJyEBsqOrNDeY3MQ1zETZqsd82g1Kc1dV0dZHHfx71fALTyRfld7hwMd3DZZ1zpKjj+k84wDOG6t3mRy6w6WPFhvcvvg8ssvr/9z4LrU+9///nrY1oXyt771rfWwrgO7b3nLW6q7VzSs1XkLzmOXH/jAB+r/IZx11ln1H67OPvvsIybwjObufxP8xwKJ0XUs/zzl0r3XcMUvTfHzkw9TRuH9UxbtUPDHPvaxcv7559d/3/I/D25MuE3hWpg/ovEn0q12iHioXR9zx9X/pio7sASw4cu6GdkJdz0HOrhtsgp1Fp0mHWelzhMJhv9KNJvMwthg0qPdNgBorf7EJz5RbycAERfh3VRwbcqfvOTPYgCJGweeNyIBkXxITa2O9OT+KZ3vlga4XXLJJfUQMImKhBV/YUhkJLRWAyISnLVCZ/Ro171IeA4GM1fTOViMhmTovB5JMXUwlmHdcWY50MFtwlWrYwHA7VIANGma/uVALrtDtkNN+qTlMWtTwieOAHIbbwA9dClbaJgkNS+FUL5zAJhdOgmbqatvfq1OfkKfdNZrtnGxd7W3ONDBbRvqezs7Vjp0igU01lIr0QRwEl7ccUs6bdi4MfPXgcK24fLNLaq1x62lW8m/pe32zoEhBzq4DTmyy78BQQsGrX2log1p1vpeKZ7WfQhurd/QPkxv6N+/Owc2w4EObpvh2ibCzEoHVo71lGUcuCXsesJj8UbpN1EtPcgMc6CD2wxX7k4WzSFimxTUesFsJ/Pb0549DnRwm706nYoSudvawW0qqmLPZqKD256t+skW3Fm5drd0sqn12DsHHsmBDm6P5Mmec8mO52rTx9avXQtr3VvGOQTsAC61Ek1L3+2dA1vNgQ5uW83RXRifc2QACMjlqIdiBMRyFi7fzJxPW+kMmtsN/oMhYXYhW3qWdzkHOrjt8grcquwH4GKKl512ABjoxS/uDubm8O8wHx3chhzp39vNgQ5u283xKUkv0hfQAlKuLsV0BaoFMHY3G9C4EuXWA7vrUqQ6/kPVwW3Ikf693Rzo4LbdHJ+S9AASYHIH058zu/fpTqbXNNw9zRQVHTsJzT/Ou4wP2IT74Q9/WH71q1+NvV7muSF/H9inpVNS4XswGx3c9mClR2oDXP67FAiRzEhu/uHKyx4BJWaAjl/ADdi5VH/xxRfXS/BDNnpJxKseCTv079+dA5PmQAe3SXN4yuIPaAEdkpuXO0hrwIryeocpJbootNRtt91WPEVEcgOMXu/wtJJXRIbKM0b++7SD25Az/Xu7ONDBbbs4PYXpmIZ6P83/lgIrgAbcvLcWcGtN4AYMPUMEtJimsDfeeOMR+hTTk0oBt8QRv252DmwHBzq4bQeXpywNYAOcTEWBm3fbAkCmmqQxkhyavIvmGwiS3LgBQ3/c7JHJ7373u48oIckt09LE/Qii7tA5MEEOdHCbIHOnNepMFQHW1772tfLlL3+5Apk1N5sGXsj1/DfJjp9pqzBA8Morr6ygZkpLyrMGxxwqD2Faj+vANuRM/94uDnRw2y5OT1E6Abesm33+85+v/2PgPJupJokM8JHsbCJ4adc3d4AHBB0HsdZ28803H1mva4t44YUXlksvvbQ6dYBrOdPt28WBDm7bxekpSgfYADjglenln/70p2oHYjR/JrADZCS1FhQBoT9wMUVFN1SeLzeFpTq4DbnTv7eDAx3ctoPLU5QGoKGBWo5/sOcZcgDmmwZogCv+zAAcd+HRcB8q01XT0q46B3aKAx3cdorzO5xuQK41AZdvqnUf2uMf+oRpi2QzwWZFaFu/bu8c2A4OdHDbDi7vwTSuuOKK+s9bij4O/PYgS3qRt5kDHdy2meF7JbkObnulpqe3nB3cprdudnXOgJv/SaW65Larq3LXZr6D266tuunOuDU34AbYsjYnx0cDdCuFXcl9ujnUczdpDnRwmzSH92j8wM3VrCgAR20UiMbRcxOfXVr26KTVzc4BHOjgtofaQUCBOSkV0PEKr5sOAIh2dGQz6bZSX/IsHvE5TJw4Y4ZmK8xJxLkV+epxrI8DHdzWx6eZoAIUObfGvpUKENDip916OPXUU+sBYN85BLyRNBPfuLzya4HP91Yo8UQi3Ir4ehw7x4EObjvH+3WnPOy4vlu93oiEAQiRpNjHAcd64hNHwiYvAU4v+fr3q9e+9rXlK1/5Sr3FgDaHgluJS1rCj1PcxZl0xtFstVvyuZ1pbnUZenwjDnRw24UakHQAACAASURBVERLCEis1Ck3EeW2BpHvVm80cWFzMyHxACxuXuY1HaV/+ctflve+9731cj3AAxhuQrjOJVxU4vDduvsWZuiWcJMwpTUE30mk0+OcPAc6uG2QxzpbJJRJdDpxtnqD2dsWcjyIJsG5hgWwrrvuuuLPmElrQAzNvn376gX6l770peU73/lOvXgPBFdSk+bpSul299njQAe3DdSpjqczt1OyDQRfF6k0AhzMtrOzr6XXlchhCSlxrTdM6ITLdJGUQ0LzCoi33X76059WySdTUKaXe7/5zW/WoyGf/exn67PkSZvZquF367dZuzjD05XSbeMOfevW7atzoOUr+zSoqQO3lklhUNzyzYzbOLP1HxdmnFviSdihqXO0oBb6obla3GjHKe7iz9SOJBQNRKikgy4X1gEHLVzc0Ic25rg0N+omLnHT0mMCreuvv758+MMfLl//+tfrv2G1IBJ+Ccvu3Tfg5qXfb33rW0f4mTDMhNlo/sbRp/xMeSZNynd4y12aFLe77rqrvmOHlvbvXl5LIZUKh9dtnOxDFX/u4s730Ey4No4hzWrfbfjlZemM9NKStVBHZHJM5pF5SNihOS4voUle8j00U4fqD6+YO62mBtwwL40hjApz1mLskC70zKjEP+w8Le2QPmGYwtHjaLhFJz1mwqVTtH6xh0aZdb6AlbTY27Bo0nC4o9cJEyb25JMZnia9zZjymHSlobNL25NGnhP35hv/cTxIesIBEE8keQfOWpw/kfFGXPIrrwFpbluhEqd357wyLH0A+8UvfrHml7+0uHvJ5C1veUu58847a/n8K9g111xTbr/99nLHHXfUvCWv8jYuj9zEqbyx4ws39dTyiX/4yj96GK79TlxMavRt0wX/R6C2uCjtefBaNZqEk0YbNnHHXd3GbUjHPfGEJuGY3JSxLedW1OFm49hRcMOQlVSYNaRpmYuZ0ej4tTpxJy5+UewJGzNxtPSJL24Jv5YpnDC0hs5s00/4uPH3dhrpRof/4x//WP+ZSqeLEg8J6fjjj69/xwdgvvSlL5WnP/3pxftp/mrPwj26KGVLGnHbqCm8ODVa+QFmr3/968sZZ5xR8wyQ5F9HZY5T4gi4BRy91uuftjxf7uXf1IN4tkLJrzi9IAxI2cWNZ14sGQIL3j7qUY+qgC2PymqDxLrhO9/5ziPSprLQw7L6xidaWuno4Z1vdZbyM1s7Hqh76UZrE9xp9nwz5cuf9Ozbd0+59957yn337Sv33POX8te//rn8+c9/LH/84x/KH/5wZ7nzzt/XduU/MPAaWAN6gB39m9/8ptJ4mNTfPPrmh044dW75AS+91mz5gTZo/OQnPyk/+tGPanv1/fOf/7yWa7U6xL9Jq4mDm0K0jVaDGmqVruGnEbBrBNFpBGkI/KPTgFYyQ9fG2cbH7nVZU6zoNCxmGpWGlMalAdLcYvdnxb5pdo0O0HjQkSSADh+GlRreyL8GkpdtNTDSDVOYhJMnRyws0KMV97XXXlvTk9bVV19d85C0hh1wIw1KmsKLi6lcX/jCFyqofe973zvSedUn1eazTYd7W8fo1TXe+/8F0h9wFr86R5vytvFs1C7f6szOLT5Kl9s3vvGN4u5rWz5+NkSA4Jve9Kb6nLp8RNrT0d/2trdV3iZcy1tutDj8iQ4NQGlrkR/84AcrkPt/CtrU3L+MnX76B8uZZ55Rzj77rHL22WdW3p511pnV7YwzTi80/w996OxyzjkfLh/96EfKued+osYrjU996vLymc9cUT796U9Vffnll5ZLLrmonHfeJ8pHP3pOOeusM2oa0kraTPnxPxfWSi+77LLi0DUN4L/61a9WbRBwXvFzn/tc9fMXkG6eoL/88suPaG6enxfeZpL48XucCu+Yk1YTBzcNlmivQdEqX2eM9u2dflMFDNLoTA/OO++8YmRXATlaYG1HR1AhKhaDMVSHw1TxqBzpMWn/EaCy+Kko/8hkOiU804OK5557bm0s0szz2PyThsr0ZLa8SZOdm0rlptKZ8q8hSOeqq646osUv/YBEW6ncaCOmjqBR+NYpXV8CXuk4TACMDhi84x3vqKMnvgJSAK58pI2k1XbANt3V7MLo7DHFZeR2V1TdyKO0uIdutfjkG5iFNnnjLg1rXTqf+jZlBeBo+Ee19ritZqIXB76ceeaZ5e67765pcbdOqA6lnbww/YuXerzhhhvKK17xitqOgJqBSbj/+I//qFIM2oRLHpI/kqj6Vg/aivi0E3Ztpm0nX/jCFw+32a+V66//RvnOd75dfvCD75ebbvpR+fGPb6r65pt/Un7xi59XqUkd3HbbreW3v/1Nufvuu8q+fX8t+/c/UA4e3F8OHHiwmuyHDh2oem7OQPHQUkf4L6/Knjwzh7otV/ziNs5EE34qq3Y7ToUG/aTVxMAtmbdw/IY3vKGKrsRhIi5tRPRN/I07e8RgbhGLYzdlAwIWeU3b6Cz6RmqKdDU0I2lFqiJZResA0dxCw0y848xIbTGlmSkEMxIgsR0Aj2skOolGh09vfetbqzQDOMRlxAckwqFBK07gJn6AYAQ2UOCJcPysFQmjIdFrKTRt3hKWKT3Tkec973l1xxO4tpJVwq2VTvLS0gck5Fu8QPmUU06pYIDfwqTcaDeiElZ9mj4DN3FIH3gZuJInadCkUWtx6Egtj3/84+vgqX7RPuUpT6l5TNxtfrhRBoAMSL4zG2GKF114wBxtAFgvEx7Ymv7bwLBRdKgsLJJiR+tpaEfraabbc3WdjYk2a27M2Ns1t+SvTV/+Rnl4eDvhtlmljAZ7A9Y4JX28Ppo0xsU7zm1i4BYmksxMr9ZbmJaOfSWdyuKfRsuNPd9t2OSH2YYNTfzb79DG5EeFpjXHMTduOq3OEvq4t3GRvoCbjq4jAC+SpI4SN43CFJo0a0oHNJ/znOfUa05Anj9w00mTVsraprmSXRj0wIsGrCRbEqIBib+8SIdCyw2/uYX3cedHMfnTwos7YRLedJSfTkHyMT30r1sBhcRVI1zHjzwIC5gMAPKPZ9IgXYvfAGJQMGswaJKs8DZ5NGMgack3gDddFR/Frc1T7ENwk49x/EA/CrNYFpcOVb28PF+WlgHVXDVLOfzNbXmuLC4fKvMLB45o4er3PCl6tIkA6GIP0Ek/fSL8TF3JQ3gV+yhf62ByQ5Iw4jWDWQncmiATt04M3BQS00wBiOoaA4UJYURKF7dUQioi7jH5s8dMeCY3OqoNE7+ETcNMPKGNf0s/zq91Y19L6RgkAqrNY8KJw/rZe97zniph6FwkSdNSUqtOaSGYxAFw0PEHCEDTHU6SDtDQsKRHiXdcekk3Jjo8xxdaXCRJywA6PAlZnkIjTnYdhZ0ZQGAXB39+4Q+7/ImblJa8tf7ColEugyJQwjdlFp5q40z+x5no5InWBi0VkELFbZ3P2iRwI9GR4swK0FnSAGDybyAh+cmzZYDvf//71V2eo4dpD8EtdCnnw+mXy3IxGB+sIDU3v7/QpLHFpbmysAj0Dlb74uIIyLgtLB6s+gjNYWAbSX2OuwTgRub8PMB8aOBPPTO503ivzPT4vD4858OvhBHeYGH9d6hCM3Sf1PfEwA3DFIZEEnDz3WqFSoGZCTM0Q5ewqYB8xxSuVXFPeCYaHYjfRpUwwkevNw47TKal1DCMb1rH05HtNOmAGofpJokDGAAsHcy3jk9SQ6eDWosRHghY2wN8SSfmuLLGj6mh44t0SWvWqUxvpa3h6+jKnTDoga6lhACtb5si8pr41JVwvuX3pptuqkAdN/G1OgAnLyRekhMpy+2GxJV8CBf7sHz8pCkM3kiXdMaNTjr8gLe8xR0gxo4Or/EdTdv2pD1ULbjJw1rKlBNwAaq5uf3l/vvvKb/+tXW1X5f77t9X7n9gX7nzrt+W3/7u12X/gXvLoUMPlDvvvKPceddvyp//8odyy62/LHfccXv53e9+W373u9/UndO77rqz/PnPf6ogd+jQwSpFaSNmAYBdvdpZp61xqlv8zmZWWx9r5T/+KSv+rAVuiT9hJ2VODNyS4YCbQq+mFDgNlZnGx70Nyz3MYdcIVYyGJ5zOGClGx9egTfHEoRKZwmnUpiS0tTUdCZgY0S0Gy7dGQBLKLhGA0hGkI542X6uVDWCRHFK+IW3KSIqwzS6fKT9TZ5NfeUwnTDmUnx2N/AZYhmm030kvYZMvaVvHswCeaW7KiRYdFf7LrzUy0o584j1p00YNWvVCJywaEigpSbzioZKPxJs0lVXdkajOPvvsup6VfIU/yh36GlnzIw/R0pA/Ji08P6bvpB1/ccaPPfEMzYRDQ9kU0eZ8K/tayjrawoLjI4fKzTf/uO6KXnXV58v//u9n6+6ojYaPffyc8tGPfajcd7/d5AfLRRefXz51xaXlRz/6bnnlK08oF198UQV/7dSShB1UU+jf//53tb1oF0AX6HjQwKYcf5ttdoCtc5tGHnPMMdUMb1K2tcrAP3xRbn1mnOS2nni2kmZqwC2FwlAM0miNNKYmKsJ61Bvf+Ma6zvTmN7+5dsI0dI3ImRs7XCrQKOuohI5q58Z9Rzunph/CipeUYTS32AwQnGPi7/wWd1M/az8vfOELK+hxM00jmchjOkTyvZopfrun48KkASVOwKbsaNsGE77ELenFHT0wD8i3/rEz0YsDPYkLH4Sx2/zKV76ygrpvdK0eF4eRH/90HPHJt3Ja97OL7cqVPFk7M6UjcZIU1A+Jz840Wn4BkjZN+dQWaHUtbm0ACEsvwMmOVti1VBv/kLb1k+a4OFuapBc38QXcuOHHWkoaym6AfcEL/rsuB6iXrAXa6f/4xz9WLrjg/DI3Z+PlwXL5py4vV1/99XqO7YUv/O8KUgYBfDX4aqva/9vf/vZat5Y2xMPU9tWLvqFuhGFye9WrXlU3/+QpZU8Z1yoHOmHwTd3PNLilwo26gEIFrkcJh0GYYzpiqqYCSD86kkV0lWaRW5zRRktupi+kHCfNdQadArgQywGcXT90GpPKFr8KF7+OZyRTSTqQDg/cxK0jyQepUB51KOZ6FImL1CfeoWrjUu7o0PIf2pMu92j5o/Ej/tJiH2ppyD8QUybTXZ0SD3RIcbb5aONL/qUD3NQvfuKvMEZtG0iOVZDqTJNJc3Z+reOR6vAcTx7zmMfUwQjQtXlv8ysv8ipuwC89YOooBwCIH7px+Ux+h2abRsKNcxuGC7+5t/ShU1bLA/zkeS2FTpzK9dSnPrWGUQf4Ye0PWJ1/vj+4vqzMzWnvC+WLX/xSueGG0cDxqle9uvYTMw2zA21Z28V/bVcfMvCrBwMZflm7dc4OqMmjvqCtA8Vjjz22DjzjyrZaWUIvPhs2Mw1uYQRGkorWM4qFQSob0Jx88sl1wVdFC49hKhvIiTPAppOqVOtEwM/0QwcjiVljsG6j84lTJQI+0xy0AE+Fix8wkuykL04iPjDUaCzc65Tcky669SjgqtMrhzIOVeLhx66BhBeh5x43/u03u3wpA79WJUxMtCmv0RrPNHwDgrDymLiZw7QSt0GDJKtcz3/+8yvACWtKDyx1JNMeoElCA+7cpEW6Ng36p3/6p9qRpCFPAebkNaZ8iJtWRmGBpbgtJahjmgSozujWHjemOlZu4XJYVZtQt7QBUV7lk+bmm7t2IO90DraSUnK2UTxmGKbd4WH4tZKpjMqvjb7gBS+oPNB+I1Hv33+gXHjhxRXcRu1uoXz1q18v3/zmt8q+ffeW17/+jeXkk99a10m1d/2ApKy9a9/arzpWDtKdOPRJB22BG77jC34qpwPipq2p+5XyPXRXjoTBpz0BbhoSIFJZa6m2MWtYJAINpW3YOjGRmvQmTlqlWf+xcWH0QXPaaafVKalRTIdT0SQHFatjnnjiibUSfadj6SCATyVpBL41DhKKtSLhgQB6WqOU55VUyqOhyYO8ptHHb2jyj5ZGOnTSGzXw0TpR/NGwh0a+AhjchIkbkwSkMZt2k6AABp6Fdlim5JE/O3pgb2DQmay5vfjFL64SA7Bz0FfHATBAwQaF+pQPgIKGNPwv//Iv1eSeNMJL3/LKpNjDO/TyC1he9rKX1bjVkU6t/unWHreYaNUtoGMG9PJtjUp7QW8ZgumbFi9NGtK2bBZFK5M2qM1S8ruWQqM88vF3f/d3tZzATTtj0pdddnkdqPEfoF111RfKt7717XLPPfvKW95ycgVd/CDJ2t2VfxK5diGPjgsBM5KgOPTJgJs2SWpUJmtvQB9Psy66njIoY+pPPe0ZcAMIeW56rYrmnwasAl73utdVSU1nUgmpdB3TlEflYSaxWsNSYRqgigaAKg0NMONvs0DlURrkcccdV6WMdCSNAqAmDxocqcS0SZw6rKksf41E2utRGpi8GfF19kgJTCARKYGdPzojuSkcqUd5jb46jvyZ5ltHdDjaGiFApl/zmtfUdUfA/epXv7quofBHR1u7JA1bt7Im45iHDoG/OpgypWxtuQIw/Gk8EF5Y4UzDgJv8GiycD8N75QCewM0mRaY/JBz8lx8HtfE2abTpph5SP/gtPWtSAPKEE06oHZmbMshbGw97qxM3N3GLj843N4opzvgljoTnH52w0qaUHUhQcasfK/wkbmU66aST6qwEsGhzN954QwWZ6667upx22rvLrbf+qvzmN7eXK664vPzqll+UO+/6XTnxxBMq3/GRBInn2hWg1l8M/DYaSNnpRyQ0vJcGocAU3yClHtSltVf8DU+HfB1XlJQDzzq4jePQ4REAgzAZgGEUO22EVfHWC3Rm0xNTPhVqhNXhTT2ti7FzByw6U6YVKl78KlKlOiiroWoIQMaiqnhVrHDHHntsDaux6LwahvAqnLkeJY+nn3567fDWtXR40hxNIjTKtppb/Ic0Og5eaIyZpgMZnQN40MoPiI3UGjdJzeAA6Gl2fqZ1Gr08KX/KpWx4osG2ihs/YeVDGkCAlGEAsWQgbvnRcbjjc/LkW17kSXrComeOUwEO+aKFcVzBkoK8k1KEpVMfyXM62zgzaSV+ZsrODHANedDSJw5mwrAbhAJuwq+lxCnv6gWfbIAZ2LQzkq9rVQ88uK98+StXlQsvOrd8+jOX1V3SBx+8p/zgh98q7//A+yovSOF4krVjAzM+ixfP1U/S0W60N27q0MDPVFdMfUx7Ck+VTz5XU/xptHtmzW2jkltb2UAAo0hcdtoAlY4DoEgCpDvTHNIYEABOQE7HB4rCkSTQZ5qiwahEFaeTomXXyUgTplgqW0fUUKwbAUyNRToR11UivZZSHvk2LV2pEw/jSEOJe75jjnNPh0QTFfqY3NnRyruGTMIC8NZrlBtvdIiM2m18wiQ8E9+UqU07fOEvnpY+dMy24/hGR0exJ35x6og6vgV7i+fJJzP5StiYiXM1E238h/Z8J772O2Fakz9wI9lSyrWWEj48C398B7DdVjh46N4yP2855IGyuLS/zC/cXw4dMsW8v7jV4OqWsMLhWWt/KJ6HeJx0Qht64WNXd+G/PK6lwgdxWC4gIOy0mvhRkI2CG+aG6Rim8QKajPQ6HTs3ndOohAY40ew0mnwLo7JUNK0CWp0K5ZdOnYod0qFNRa638khupoDytd1KXlM+9ijlCq8AB2nITrFBAA/wFQ/xoQ2X8MyWDyvRtPStXZ6i4574mPKnztQhSdZU3JScxEEiSZ2KY5pUOy3dSL7Cv9asduC1tL8sLdxfFudJyveWxfn76/fS4v2lLJnSP9Qm2/DSH363eYpf65Yw/KKH/uO+0aadmTEF3OI+Lsyk3aYO3DBDww7ApQMEZAI6ASrfoecW/4w8CcdMXEMzFSAsTSUcv3F6IxVDAgVuOup2q/AzZU763AEEgGPiHenUdJ6EFF6Gbwm3VWb4K1/yQsXum12+SJY2j2xeCMONTl2hjd6qvB1NPJsFt5XTXCxlmQR8qCwvHixLi/vL8tKh+l2WnaPLo5QrxzApn/A9bYupjgJuvqPQbreaSnALk1ZiSJjKDGNjj1/L2DA1fq3Jz3fM+CXMVpgkD+t1JKGdUMqEHyln8hDeAQogp2GamjsKAODsCAJkAwW/rVRDPsuLNKKtC1l6kBe7lfKYfKAFvilPyreV+dtsXCRg0uXWKW0T7wHFUinLBt/D9uq+/aCRsqXOMtCk7kxLLfe09RN7wm6HuS3gtt6jIGsVGINaJrGHoePCtrQb9V8t7Gp+49IJuJlK74SS35XyzB0PgQVTQ7WwbV3L+pF1TAv33Nt4WvtmytTmJ3YmkLUuKm07dnbz0nkCxsmndI82H5vJ+2ph5Nv6b/IW2pQx30P/1v3hduD1cADbTiFoXL6Td34BuPRDpg0RAB//h5dn+762Bdzsek5KasHclSpgLTYmHDM6FZeOlPhDG//2O+lwa8MlLHBzsNUa4TSqlD15JyGpr+TbfURHDfgDGv5UCzptucbxZugfXiU+39b58In0Y3ea1BggCy/Fk/y2ce6UfVhWO/kkXuWS93GqzT97+J4yxj/uwIxeWtJOR/Z8SyP00op9aLb5iF/rFnvSzPd6TPFRwsqPJRgzgJRnPXFMgmZi4JYC22m0EKzhTkIlnZXiTkUyV2N24mnph3EmjjSAxNe6t+FjN5I7r2Z3dtqVPLeAIs8OvTrYacea9AnclD3gFrBL2cQxVHFjCgc8rZ2R1IAY6dB6ld1Q0lokSfQJO4xzGr6HeXPdyaZMeJNy4GnWCsODLAUoR8qZ+JhpZ4uLS+XQ3Hw5cHC0g3nw0HyZP7w+nHSY0lpNq6eVdNYyUx/6q8GYFJ+jPEz15JiITShm7PnWXuy+A3j5j0q58r0d5kyD27gG07qlAYXxQ7/WPQ2trbC4jQvHjb9GbRRzQXxaJbdhQ0u+dRidQYO3KaLjOk/lyIhOlM6Kbi0VXqLDE51HeGBp08AAaGddB+IuzTbMWvHvlH/ymHbhsLZpmTKZ2js+5HgRzc7N8STa/c+hFs4RJseXHL51Sf7yKy4vl152abnokovLxZdcXC659JJy8ScvLhdefGE5/8ILynnnj57kNzB4bNPZxVZbt+TnHJx7udoiCRkI+UZrOk3qdODeQe8cEHcdi+bmELnzmtLQDhzOVlYbCPJKO09qGcph+vBE3YRP21lP2wpuCjjUGBAdiWGjo9FKo5WOmU5IUgAuDrgafZyXs2ht4ZN26NQ6gakYScvxDefTVJIFbbcXrAXZUTRlIpFG65TO3GmoabgaMUlHo9awNIrdBG7qQH1kpAc4eJazZhq18uAv2tRh6nfYiIf+4nZmUIfQ0QCmIx5AjRavMLtFJa92dt2ccEOEdto/4OA4i1duTLvdOgE2QALI0OzARnthx5eLLrqwXPapS8uVn/tMuepLny9f/tqXytev+Vq55rqry3XXX1tu/OYNte1pfzmPSXJ02DlaG3ZmUxvX5g0g6o6UpT9E+tIvfHOPVidoDUIkbP1I/aRdqKfYmfycmZTesM63uy4nAm4aeCpbx3eN6mc/8zdgPy7f/rZKGOnrr7+uvlt10UXWWc6q14ee8Yxn1D/i8H794x73uPLYxz62/MM//EN9z56b+4hPfvKTy7/+679W/bSnPa2+bf9v//Zv1d3LCrT37rnRaJ/0pCeVJzzhCeWf//mf62sUj370o2u8TPH6ezx38F7ykpfUK0wapXy7CG3NiTYqa5yAyhRKQ1SROrxDw4BMA3OQuL17aFFeQyat4M1uUAGp1KX61JA1dqCkzDoywNOoAVwLSClnawI0jR9QGjzwm5Si84iff9JN+9kNvJLHlFP70OZN0wAFIAEU6j5lx6d2AB9nx4vwZHF5oSwtL5XF5cUSu++lw3+8jI6Wh6EZfo4zw1vpS6/lf/w2Yia/+gRgVU46vNlIXFtBOxFwk7EwU2d3+fyCC84rQOzCC8+v+uKLLyyf/KTXDi6uf0XmqISFSBKBWwm5g+l8E4mJROVai5FHZzCCqJRpUinzME/ybiqgse9URQ/ztJHv5Bm/AVlADGgDf9Kshp3GjM43TQkfPzxQ17nmpkOJM2lsJF/TSOvFmqy5rZQ/ZcWb1sQHqgWY1j/0oWvjjl/rtpI9cQbQUlfibdNeKfxq7vIhDvWLB+pc/NLcCTUxcAvDjWLvfe9p5cABZ7wUstUav28VPeoImJHOE6ZgmNFenGFgaPIdWkxMBTJbnTytRCOdVHbiHZrDykq6TOHp1k1aprvWPUg58duJyj7aNPFC+ZUxYAXYPFLgmpppDwmFn3LS4blwpDUSrCmY+gRqBqnQH23+piG8tSuDMR6tpMIb/rG37Yw9fm0caPFxqBJH684tvG/94562mvr0zS5M0m/jW49d3OIBbmYviZv7TqiJgZtCYpL1KYvF99677zCIccdEiA4I8t2I4YdBoq2cVEbizTcGZlqUikkFMlvdxte6D+0qglvoUzHD+OM/LnzCMK3hWWOxC4h2t6rwRLnDf24kahK36bp1RoDFPY3beg0J3lqTxwhI3vGLJLib+dLWJ3Cz/qV8UcqGX8qa8vI3EGTKSqI15ecO7E1nrQV7jABN2n0bp3iHdcE/vE+6wooztMmDNK2zaZfW3Qw4wtCbUUkPuHnkQrpHE99m8tCGmRi4YSSlkO985ynlvvscg9ApvAThDyn858EI4EZ/RTY6JY/BKkIli4OJSancVFRomPEPjTCbYWpbqQnfurWMi3/c5DVuMeMH3OxI7XZwU56WHykzU8c0FQHidtFIqdzdMdTY7bQZza07pX4SX+IJvzZriodOvJuN52jCATebSsqYfLBr16Rca7N4pd0CfGuONqsAorUqoObojQPMXgbxDJZNF2t4LZ/UQ77FL76UXbrc9AfpAlHfNJr0GfmRlgGHEMJ/2HbXy4uEk6b3/ALwyeN649lKuomBWzJJRD/llLdXcPNnGEDNP2IzH3zQBWiPTdqd2XekEowsRnsVk0qxU2MEY6poIw4a/tw1GGYWbYVtO2Ly3f6kTwAAIABJREFUsxOmaSlwMwrPolIHOpCGrXPabLCmZg3VXVVglzXS1OlW80Fdy4e2o0PJy04ox2V07KQvXwETfPnbv/3bCib8DQaOh7iuxP6iF72o3qH13l7OFBoQvXzjELWy4Z8+oKzKSfoidUmDm/Zvw4e7OiFNO1air3B3pAe9tujoh9dqtE1giiYgtVHeyQulXMBNueRnJ/vgtoNb/lMRuN15p4fxTixf/OJV5Zprrq4jl5FMBWkgprOmPCqO9INhKs3op9ICcL41jkyJhBdmJxnbNo7dBG6badwatoasYceuHh1psBan07R+aCehpJ1OtlN1Pw7c5El+8MQOsSMiJCVrlHYVzW60d0ADyICOwQCQacfs6ICGDTWDBqGBxKfN29jRN0iCpD9HSKzxGmj+67/+qw42JDR3dQEpGrv5QNT6pyMqJMSjATf1qYzqWfx7Btze8Y6R5DZ6mmW0zgbc7rtvX/nbv/3/iiMh+/bdU8V2/2BlE8IURsUAOGsPKoO70UsFeazS6APYHEkgHehMWZ+YVAfaTKfcTeCWjriRcmrUkRyY0ZG08x3wQU9PSk06/tXyPQ7ckh/TTMDl0Ks2qz07S5lZB0nLKQFx4BkJDcDRBndSsIdKHUkiaTlY6/gRQDS1FL8DttwcY7Ik4GaJabJwANUDrXa4nUJwUBe9/w2RF0JBBqHVyjjOL2UUXl8E5MowyXoel4/WbWKSWwprVHK3dLShMEqanz+L9Tdlj3rU/19uvvknlakq2YFHJ5yJz0Yy0xvMd5zCaIVhRhngZnpqjcPZIqI1sV+HEj8QnBbl8cKsuU1Lnob5MBjgmca50QaJPsAlHnUkLm6+afHuBQWYAEXKG74wgY/2qp07J+n8pYPfLX9IPEDHdJR76sROs9sDBnRxkMKc3SQEmGYCMtNP0p30gZuD0foTUBOvfgMESWr6kg0etGZBpEjgJs2N1n/qVTjlloeAG7/Nxpd4N2tuC7gBKyJyqzABMx/1qEdV8dqoBZhULOACbioCgD3rWc+qf/hC7MZ8jDNqOXn97Gc/uwKgvzEzKqr8MHmnmNqWk93U2gipwU6rwlcSgk54NArPxcFs9dHEuZvCAox2zQ0vwluDLyDxTSo7/vjj6y5zAEw5tRF9wPEafcLUU3vXH9CbnRjw85+v/uODpCRNsxh9gOTmMDppT3raHnr/rmXD5+Uvf3mdyprOmhWRFk199cejqX/1rV+3kpsycd8JNTFwS2FUjhFnHLhh6N///d/XNQeVbfrmD00c4lWZRho0pLYnPvGJtYJ0QGJ4/lxZxaEzGrnDSWrQeNKxko+dNHcDuG0Vv7Yqnp2sr6NJG7hlvUk8wEKbtFbmShVw0he0d5sEwIV/FHAgiWnj+o3po7CATp+wPKOfkNRIgADMt7Vokpq2Zi1a3PoOO6mM4CC8uND5tsYG0MQt3a2oO/HYHbfWmnKJdyfUxMHNQqa1AkxuFSZgtCtRxFh3MTEFsGG6kcj6gHAqwLqBkUbDcO3Jv/eoLNvk7n4S0yPKR3Jo09tJ+24At5Y/O9UY2zzsVrspo3aaAVY7Z49pcAYmgIfpGwhEYkJHktPmaXSAMBo9t/j7jl08wtLsbVzCS09ehIm0iC60W9FvpGnDw6xLvDvZliYObtYE3MscB25GLbucJC6jT064qwCjF/AL81UI0MuIh95hUGCn0phoMJfeioraqg4G3EwHjLbTrnayMU47b9aTP2tu1tbSsbXDgJt2yc4vIMOe9po2yy/gA8jSrgNcvunEmzTExY6u9Ys/t9bepq3eU/cx11PeIY34Tb/NppKfIU2+jyadxLGaOXFwA17+IHkIbpigcMxolZwCx0zmfbdu+Wam0tjbeBN2p01TBAvIwHxWVVsf7HtV2TgiuenYUWmXATfgk46f9qoN02iZoY17TPRU+J00psWUP+BmHU85x7UFNAHW8GYS+d8WcHvve9/7CHBTqFSgwtIBt9beFnpYoaFr42HHuCHt8LuNd9J24KbRzzK4TZqHuyX+Ibhpd2mn2qXZicO0eQmFP8XUdrmT8NFGQjODsVHGTVxtmNingT/yIn+Wl2xurAZukUblW5hJqImDmx1N53JMG1ulQEYjFZZRKSY3Fd1WpLC+wwhmgAwTsyYhDt+hbc3E2eZjO+xZc9sN09Kj5YcGvlqHSweIqX7YUzf5Ptp87FT4ceCmbLT1ZxsODrk662ZDgHt4od06omG30RKMtqxdm+a263hp0wm7U2Vt01WGlGMtyU240DMnpSYGbsm03R3b08NpqYpzsNAWtd0bFWbHx0KkMz38U3mpzDR8Jj80tAXVbCwARo0k/gE637SwwoS5k2JsGy9wc2J8ViS31K0ysqc+wmMm99Rh+B16dUQL19ZVBjXh2ZNOzJan02ofglt4o5xmMG4FaAdOEVhX5k6yJ5nhk3OhbhgAN+tt1qPdIvAwAX8nB4CkNhUetvxp7dvNI2Wlbe7ZGFS2qGG+8p0w+Q79VpgTBzcvcjqzo/JapVDc/vEf/7FWODFVpXv3DLhp4EALnUplUmECM1pYR0iMbukYoQ3z0GRxlsk9cbX5moTdNMRTP8B8VhT+4XWAy3emGqkv9YfHodXY0XDXMdltBgXUmCQVHTth8Wu76mkr6sbRJIdplSVlxw+8ssju4K4BXDm521nMrYQc9TDgk/KBhDNr4gRuBAXtyKFcAgOhIGlsRd6PNo7kRV5p9buTauLgZuQBbl6JiMKENO6XvvSl9dCuw4ZAwF05oGedQSUCLK8XkPzcWHB+xnkhV7A0IqYO4kwQgHMA2DESQEJasnvl6IiG42gJkRm9PNDboZRLHjTGWVBpxDonIFInTroH1IAZ7fS9KZi607md/3LsR/3y18FJ3OrMMZ5IKuqZFB+1XfWU9I7GdI5tuJieAdfZMlNMbZ6Eh3faqqnoa17zmnpY17EmbcV/KbiDqq0680YSIvmR7AA/vmrLeIPv08Ij9epqmDqceXAjhQGuFtw0HhWi8K6JWGR144DU5tAiECCaO/sGGDz5DZxUtorWSYAZ0z059/McN9GwdLJjjjmmAqLT2zqY0c8ahxHTzq3rUOmgR9OQ1xs24DZLklukNgvg7v9aV9WwSWdAiqnO3G00GKlrdeO8In9TMuBGOvm///f/1vrM8R8dWwcWHzUtHXc99U3KahfT086AlL6g7KaVbgtov9q7dulJKKYL8qQzcRx33HFHBg+DOBqDg7jQGhjwSF1Mi5If+doTkpsGPg7cVDrpDbhhiIbvorx7osDADQSjGD8ju5HL6IbOJgWxXGMBijqMitdRSAn+D0EDOvHEE2sHIw0S9YGL83FGUPFuV6cx3bZuMiuSm44UKU3HUmcGF8pA46ltkjdNinGdyKBknUm9AC4L6wYZ0oczgEBQHHjlmh3gS/3EnJYOvFo+lGW43oRH2hzJC0jpE8pqUD/ppJNq233xi19cAR64GYAdoXKFymF1g7u1OvxjAjaDv/bUTt/la6d4JV1avyJI6IvytpNqotNShVWRGvu4NTejucpDx06c9aaVKcnb3va2uqWMQTqHhVQVq+HrILlu5XUF0plbENYvVDh6jUSDseZnrcJ9PA2COA/gtlOU18kDrjtZ2VuVtvqKtMA09ddxuZO+8F4dqnP8N/j4Yx+A5hvv7Z6blgE3Hd6gRJoh+ahfkp/4dpsypQToBm5KGTJLMfU2DbX2ZmAGBNqrmYVBQbnxLYfZScXorL8BR7zm5r413kkj9TAtfFIm/ZjkFuDdqXrcMXBTKaaq1h9UMAaoQJWvodtBAkQainUGFQzIrMFpDEY+a3GmqhiJxtqeDmT0d+dOQwOKGoH1O4CIznca33Y0ilkDNzzTYQEQ09qmwaXtyPx0Zp1Wg8d//zRmndRAppOiMYXRGbQHkrpHEsS3W8HNFHwIbi0A4RF+aH+k0/AwAMi/5WMAUpj4MSlu8a+WKfiRpz0NbipHAzcCATEgpwGoYBXOT6WTAgAdd+sMcbdugR5NND9ao+HGFI7dKCcMN1pYOo1k0m1i1sAN3/A2/LXs4OUXDdvUX+c2UJGYSW3qFN9N2fj5BmqOM5DcrDFxU8cGLxK4utyu+tnK+h+Cm7hTDiaNT3Tsafv4yS3tMzQJFzNx+o69WqbgR573NLipAxWpwTvIGHsLSgGigBca2nc6S2g0BgDGDw1xmJ9vnQSwCRN/FdCCWxrJpNoGcLMQbC1xVhQe0iQwO2NACjiZUllvMTCZbpKqDWL4jQ/AT31YSCeNm6aajgmbujNlVX+TrpdJ1IW11dwtHRd/AArv2GMqO3vaZdyZVMK1cU4jf+TXmmPW3FLGNt/bZd+2aamG3SpMoFUmxVTBdCoYY1o7+rhp/GgBFo2OW0xghh64JVxrskcLE782j1tlt/Zkiq3jz4pKx0p9pJ7wMfbUZ2iVPfbw3nfcppE3yZ/8rqZSBuu6Nk+UfaNKGsJpx7S2a6BOG2fXrg0OBnMDAjOatGywYVoS0N5Ix9aYLdNYv7MGHtOSTavR2eRhthqN8I512eiwxGCdm1RuZ9uGnaUiGx0GLRsirmClD67Fu43yab30Ewc3zLWhMDwGkcYdU0UGpHQOlazBtMDjGz1TRQNM63Uq2+hvxFd5KoKb+MRr3UelCZu4xc8eLU56Egq4uVJjCt7V7uKANqGN6KjMoUqbSbs0LbW7r3M7V0liB3im3jZLWm1t0VTd2jA6YVotPJ24SMckIsdETN+dLwQqHrNkZyZ+7Y3deTobPvqg5QMmd3ky/SdZWyIgZZM4rYna8GAOtV1QeVEWcUaL046540DWvZVHnwPQ6Vfh05B/k/yeOLiZinkRQ8duC6ihBNgAlVHACAF0WuBp7cKIA9OMWtZvVAiQO+GEEyqAGVVowJawKpHklDTFIW3xcAuocpuEsqaoMQH6rnYPB7STtq2wD1VLoy1p7zbF7OrT7K2U4+wmTeLR5mnHmxzkNUDTngmjSUl2nh19YprCk7r0E1IZgcHmGW2Qz6YbECN56XNo+MVES6qzbGBnlpRnaUh/IhDQgDw6bnEnLEQQ0W/0oWjlj9b30p/CoyHvJv09UXCTeUyF9K3UorApPFOnd97HaIRR3DATaKlYlcGd+K0RkMzQOARpvYco7plxlU8bNQCmtE0RnIkDLjYn7JYakTQ8NERtjUUj812KBgzkmLH7jtvGqwS4WYshPXa1uzgQQIu5Uu7568w6NzP2hGNGJ458x2zdY2/N0MWMXwDFt9MCjh0BJ3T6CTNqGLb1G9KMo41bwjGVtTVjj7s87ISaGLilMEaNIbjxUyEBMbsrbie4bWBEMSIAIEc3iOsO7wI6o5dRjhhMOgNQwA0QOtMG1IjuRGQjm7DWA0iORHEjKJHeYUhHSHwT201njaRMILa8bAQi1RGrF0tZ5jYCOBXX6pRzNdOCOlEdKHc12xxIh1ZK7WQl1bah2EO7VrjQxUQvXcpU0UAO3LjFPbTrMYfpD7+HcfCPjl/7vZk8JJ6jMScObkRlwDKckgE3IKbjm8cTw51xstPCDwg5GErqcb6NBkj+zce1FNNRIr/1goAbkR2YOQAM+KwdiAtQev4Z2JH8MN7oBhi5Ownu2MJ9999b5hcOlrn5A+XQ3P4yN+/4iAvO/vLMpsXD1+nWW2kAG7jJX1edA1vNAe05ymBtvc0spHWP/0bNFqQ2Gnan6ScObub4Fk3HgRtQAkYAynTRAivpzZzezou1A+sBJDWLlSQwElnWEExLSX1GKf/oY0pKGiPxkcSAqrUEICYuEqRpasDNIipQs0h7+ukfLH/+8x/L4tJcWVg8WBaXDpWl5bmql5dJcCMpLpUdcz0V2MFtPVzqNJvlgLYYZUPDJsRoiSWumzMN3mZXBIQ2jc3Ftv2hJg5uJDcX2ts1N8XEOFNNV6pMB0lxpp1uLGT3B9BZVDXNNKVzQduFeRsEpqC5wwbA3CMlrdlkEE567p1ab/MN3Eh6ADS7PsDQRgMgJeXde99fy3JxbWYlbbfsoYa03uoCbhpdl9zWy7FOt1EOBHyyu5o1t7hvND70wuqn652hbCaNSYaZGLhhDE1yAyh2b1oVcCNh5SCvKaj1MMc5bC4AM2ts4iDlAQmAZIPByGSDINd42NH4RmcDAmia9oZOhdsh4g8QSYg5G/TAA/eXQ4f2l6XFQ2Vx4WA1l5fmSlkGdBZE6c2Bm/RNS+W9q86BreZAC0BmMqal+kIkroCUb5KYfsCuj+gHLXil3+oXhA3fNvISHyGE225QEwc3kptpKcBqVRjOxGQMjonx2eUEVnEPUxNWGLQYzs691fzo0IWGGc1f/Cp9bu5ABTZrbPNz+8vC/IESgBuZdp4A3GjxtpZHPUe3BWzsQNaUmLTZVefAVnMgbV681pfNRoCWtk3xZ9fGDbA5TWAJxyMTZlBRaNFZqvn3f//36qwPWjYyGxJP4k2YaTUnBm4pMCnLIqcjF61qKwQzMSwgZJRw3sc0M5UEgISh2rC+hRe2VaEZhkEXN/TSHcW9VBYXDo3ArMjPoZH0RnKz3kaKOyLBDSW51Ucy4GZa2sGtraFu30oOpE27IWBqmn4jDW1eHwFOwC8zJeBmGcjMKEo8+oRDwd7ZS3j913KOsB3cDnPL6XzT0uF6EyamQgI4YWwkNVFwi2QVAEvYfGN268bOLzrAGBrxqmzfzIMHRxfu5+cOVoAzLSW1maIu2WCwY+p7yWXug2Vp+WBZZC55RtnoGD0e5ICbc24d3A43im5sOQe0ZQooOX3Qghs/SzBOIhhk0w+sZztCZYMuip/+ZN3bo6+UfqQN29izMZi0EmZazYlLbtbRxh2DwEDiLjHZ4VYHaY0spDZgBBQdD1EpvpmYLBxtKhqJLeCHhjvTmhzTiJPjJcIZeazn5TJ3wozorVOM1txMTUlr9MLc/jpNXVw8UBaXHizzCw+UufkHysLigcMbEK0k98iqts6nUdmZ7apzYKs5ELASL3Cz5gbc9BeKad3MiQPHoXzT1tS8Vu0Egu8Am/7kWlfAbSQAHKxA6FD9blETBzeL9+MW0zHTaGDTwHqUaSix1/kzoGc0cWsgi58BIeCn4oARIGNHA7SY/EMjDInRkQ+0/E11pYFeHNxU/MGDB8rBA16mIJGNpDXHP0xJlyLJkdyKIyIHy/zi/rK0THLLRgPpbbzkpjx4oDF11TkwSQ7YoANg2nQkLH1Nn9AGrX8HDEluzniSxgCajS99IuDmRWu0vrVhb/YNj3RNsixHG/fEwQ2AOQoynJJhOPDBMGI0u4VNz467QmIjwiaESgF8pJ5Id+wO4wJO0h7pDxA6LkLiI62R+kiE7EYh8dixdbPBuoS4aGsQ7vrdcIMbCn+pGwqkt7qZcBjcTFMXFw5PS8t8ldbmFw+WBWt09ebCeFBL5QBS09IObuFIN7eSA5G6xOl0AclNmwu4BaD46VtmMMLoC27/6Bf6hwPtjlKR1EiA7mtzR68v2WQAgLtFbQu4GS2GHRsDSVPOoLkuktEErf9SwFx201r/auXALlAzvWP3nwmuWtFecAVQAI9UBkhz2dj5NTcaSIKueAFAOz/OxQE55+y4XX75ZeW2224tS4u2uucftpkA2ABcleSqpLZUFpdsYriadVhgWwXfOrjtlu6wO/PZgpvXqYfgBpz0N5t7lmTcufatT+gnBAIzGAO9M5/o9TuzHhIgDRj1G0KI9HaDmhi4ZdQgubkpMJyrYxAGe8EVILXg9sxnPrPeNHAA13qVS/XWyOzquH7VSmSkQuBhesrdBXoVpRKMOkDvaU97Wj0MfMopp9RXG4Dqk570pDoNlj6x+6qrPl9uuumHZZFENr+/LCz4b1PXrkhoRi8XkUc7tkBtcdEaxfqqWOMwJQDCXXUObDUH0nfEC9xMS/UJip++Rmv3ZkdASx9JOH4ADcjpN3FPWHHpe9qxvoJ2N6iJgRuGUcDNbqn5faswDqPcH7Xmxm5k8RZW1uDcTIjkZs5v4ZOobOQRL8kLYAEN4GeK6g9mrDuoRBXijqo/wiV6+98F0p+4nvvc51Y66am0r371K+WWW35WlpZHmwYLi/vLwtIDZX7x/rK4tL8slQN1fU2+VS5zvQrwpkzrDdPpOgfWywFtMe3R7KUFt/RD/oQJ4KW9sycMmgAck7s2Hg0UsxYX//XmbSfpJgZuYRwQMr0cSi2Ya13NX/iZYpKw3DElFgMfkh7x2rqatQDA5dS0q1fWDbJuZh0gf5lmsdNdVS+BcifJ5SK9tIjW1hSAn7U4a27iU9nf/va3yq9/fevoLql1NfdKD98vfehKFsB+qCGtt+I6uK2XU51uMxxoAYcQkWmpuPhFsQOs0OujdL7H+cVff6XRpG8n3mk1Jw5uppUuvFvgbxVJzZzfZoENAaIyIDOVNEoIZ/ESMAA1AETz50ej409qIzr7ptkBpBGH+I2GyQ/YikeF+haf0Yyem7MTSuTOQd8RmI0W1mJvS7E+ewe39fGpU22OAwEnofUlG3SZlvIbpwJsMYc04wBsJdph2Gn53hZw88YUEGuVEQDgADkgk5GBPWDEH/igyagCsACRSqNHoPTQ/yjwRxvgEi86bhl52MWZONiFY1JmnJl1xmzzvlE7MDUtdW+2q86BreaAdhwwcsLADYW1wE0eEqYFrdjjNy6vq/mNo98pt4mCGyaQlEwjhx07YAacAnLsLRgFkEIbkOJOo6cDVNJDE3p+6BKOf/wwnDvNnZ6U0tCAm92mrjoHtpoDbdu1NONuqZnLXlcTA7cwFri5tjHs2EAG+AA2UpNvIKWifLcSG7cWhHyjj3TWghu/aGHEQ3ICclH8qdDFfVKmMtrVda6oq86BreZA2rN4bbYBN0s5rftWp7kb4ps4uFkb85aaLeooTAdIQIy2COrsmk0F2locegv+raSV8Ezu/G0OAMlhRfoGfl4XsbkA6NZWQA/dSnrj0p18yJ/HA1xU7qpzYKs5oI2l/TvOYc2tg1spEwO3MJt4THIbglumjEDNQV6jjV0erxR4OdeNAzusQIzUxaRaCQ6NvxIjGSU9NAkjnIO7DuymAbTmIxsZ8CLhtVeqfEdvHtzs+ALirjoHtoIDacfiYk+/sAmnLxEq4hZa5l5SEwO3MNGUELg5htEqwGPx8ylPecrD1uPsqjqrYwRy7o3pjJrKcsvB+hU7YHM4mFRo6imcmw5M4OYYiBHM9ZKXvexlNelh5ap8+uFKA0gjiImitT88xFpfgBwPSKVddQ5sFQcCavpS2jFwM6A755lBvwW3YR/YqrxMYzwTBzc7n6SWIbipDGfaHvvYx1bJzDRVJQECAGYTwoV3F929ZuBArgO3prD581gHdIGbIyR2iBxe9CcywC+7kyQ7z7qoVPG3WpqAcNIVrkzy2cFtGrvA7s6TtqsNa8vswE3bJxhod3Hf3aXcXO63BdwcBQFSrQIy7n0+5jGPqZKXtbeAjbUykg7AcqPAIV3g5o6pNTRXrNwftUkhbpsW3p/y79nHHntsvcmABki62mWqq+IBKnM13eZxq+zK1qelW8XNHk84kHYM3Gj9Rp/y+ITD6vqFPqWvoaUSJnHMsrkt4EYKG4IboLFx4I4nica3SgBi3ElcwM3hXmtyxGyX3F2o9waVS77W8YCGVz/cQwV8rl+hdVnehXi7lM9+9rNXrNRUdsxJVHaflk6Cq3s7Tv0FoBk4mZZvCAFen3GQ17pbnhAPDY5Nsp1PW41MDNwiJVlzI105BoGxYXCkNBVx/PHHV4AifZG0bGcDqyyMmlYCyFe96lX14UkL89bR/D8p7YoVUHPtisSWt+HQq2BSYNYfdqICNC73ZIFwV50DG+VA+o1w7AE2g6YNO+3dAxCuL2rntOUgSzjuUFuf9g0ECRAx00fb+Deat2mmnxi4YRhtsZ905W/1WiZiMDGadjleBbnvqbK4keCsG5ha8ieN8VNJ/H1bXxC/SrbOxg89MEHDjb/KVqk7peQHwNoZ7qpzYCMcSD9iAiPtmCYcOO5hGmqWYxNOm0+/0ubRuJOdRyp/+9vf1v7APVpcbb/cSN6mnXai4KbwgMfdUtJWKoo7pkZcxuhUXMyMLujYuTOFSeWmgkKLJuFjX1oabST43qlKlGcbCh3cpr07TG/+tF/tPH3AwxJ2Ra0zA7C0ezMlQgBT3zPgEwKswdlo8OS+KWwLhMLOopoouAETAOTIho4dcGOqpHxn9PCN0a0GDKELiLXAyM837Z21EQ3xe6EsHtkJXT5s36pK3NixEGUgvXZwm8UuNNkype3HBFimmZZbbLaZnWhf2j3lVIID45mKBvTQmAFZg/YKj6NS4qLFPYtqouCGYcBNx7YRQKWSmONGjDCaCbBWUp73XlycL4v+xGV5oSwvjf7voB7AXV4opbrNleXFQ6M/Vl6yVf7Qbum4eJP2OL+Rm6m2dPP0C7DUMOjYHxlaw7Lu2MHtkbzpLg/ngDaYQZxdH0lfsBSjL1niIK1pV/yZ+go6AGa3lGQXYEscTP3Rc2Ge93ekKhKcNPkzxTMLamLgFuZg1hDcMPFoFUCbXzhU/JeBt9dKOQxu/vdg8VBZnj9Ylv2p8vyBUjwdvuBfrR46biL9thLZ8x3zkXlEoxGNdHtNa/RnzeMbhcZnQ6SD2yM52l0ezgF9A+DQWXYhnZHEbLKZivpGR2urbX/y/JdNNkelhm0634CQPykux62sTWunAcyH52rtr5X7zNphJ0WxLeBGajFahLlbwYgRwBhlSG5GroNleXGuFBIaIPPv8Yf2l6X5g4fdSHGjaatGIw8Z7djTQJhxfyTTR+DWgtrSEinOU0mrS26zDm7h3yN51l02wgFtUfsEboDGJoCbNkDN0adIddpoeC4MTQ3BLTRtHrhJAy3Q9L8kDsz7Tl9InIm3DT+0o0m+1kM/DD+p720BN5IbcMPUMO3oCySuhfpPVEvLc2Vufn9ZnDcFXSzFn7eQ0g75YxdS3WLS8YXzAAAgAElEQVRZXvSv8Q9tOKRCmPKVRpCKz/fD86kRoQWqpsyjqfHc3ME9DW4tLx/Or/61UQ7gJeCyFmYTjrTmrnVuHPADJDSFno4CUM6FRnJDP1TaNvCMtJYdVefkXF9MnK05jKP9RgeIAeY0qYmBGwaGic54+dedVMI44ODXuid8y+C4qbCRVsmHyvyCbW9iNVF+xGRmxOyROfrD5oj83LKg2prxt5Wu8qPtOo3X/pzm/rJ//4NHaBOGKR5b9rbrTUvlO3yIOU0NYjN5aetoM+GnNUzKpd0Bk3zHTF3me2i27bktI7q2LSd+4MBut9N00X+K2jSQNve0+8Q1TI+7NTfTUuESb+hjJi5m8uIIlXU6f8akr+oH0pUn6aINvTBDNc5tSLPd3xMFNwUGIg4Yvuc976nSm40FNwmYreZGu29qoZOY7FCi/zgglqvsh8xLyqWXXlIu+eRF5aKLzysXXPiJkb7g/HL++eeV8887r5x//rnlggvOL5dccnG57LJL61/3XXHFp8qVV15Zt8NtibubmnSkZVvdyySmAP7UhsQJmI2eDgi/+93vKu9616mNfmc59dRTyvved1r58IfPLh//+MfKhRdeUJ9Ykk6blpPjHgpIJ1HR09ggtrsBTnN6OrP6Cqi0pnbdfrMHhAIE3NZSSUN8wnts0lqYNuimTtoIk24BJunEjwncPPGlrUm/9UteWjdxSDvp20V1eF76Hqow8OecqHCJM3FNszkxcMOEMA5YkVz8UYwzb7aqad/R3K1LARS0QIXp0nw0N/SA4qKLLiiXXHJh+dQVnyyfv+rK8qUvX1W+9rWvVgA1BXbbwbUu909VEjHd+29uP9h1IuY776MxxGSP5tbSjWjQ3/0I/Ze//Kk88AAJ7oF6iFhjMPIxW62hpMGngU1z49jreUv7JbG3IEea0U482IBGnapnYETqCgCo43Eq7kzxAhbhSfauGOoL1tfcMDBNdMCd6aCuNwG17QzMGUQNzP7D17dp7Gc/+9kqLOgL+oEprvU14R2od2SE6XYPmggXBnsPUNhxdTNI3zXVTTmZyf+4sk2T28TADQPCEJWtEjerNSY6DWwUj5HzsF46VBaXRuJzm1YamXwkLDuV/LUVxR73Nu8PhRmtt1lzy7pb1t6yoZD4pN3qxBt/ZuzT1CB6XkYcUOe0K3NmHYBMfWlHBimSkSuAAMk3sHv7299+5LC6sCvVb+peXNq15Qt/O+kmAVByBdHNAwAE0AJEwEh6tBlOZkG+A16e8ze9NC11L1s+ac+GkQqtr7HT7LQ72AZ+ml04woAbQ2ZM/j6Tn/Ysv+kP095WJgZuCp5KDMjEbWuYAxyyQ8kcgVbL8KS/UiNraWMPbczWfeRmNH5IjzYYTD9GbmjasLFryG254574uzk9HFA32qz6AiyveMUrqhTvWz06/e84hkdQX/CCF1QgIamTmoBA6pYZndKJIxooepDVmTOgRnpLO0GTPIQ+cSX+xDl0DwgxqfgP7W34Ia00I1DggWUZYCrPiS/5QDuNaqLgNo0F7nnqHFgPB9KBTQ9f/vKXV3DT2U0RdXaSmiNOXqch2fnDcADlIYhWJR5u7IAAQDjiYcpnqcXSCekNwAA4JjrTVbS+hWXKA/tqCl00WoBJi2u9kpf0hQnAKR+AI1WS7uQ3NOimUXVwm8Za6XnaUQ604NGCm85sikc6sw4F3JiuM7k1YFOKPyUO9DR74iThWT8zBfVytLVf4ADIAhYJywxIoaG5ARzuKyl+aKQF0ABR7ppyS15WCj/Mv7wJZz3Rmpw1b2V1CoBfB7fVODlVfg9NOTPVfMicqoz2zEyQAwEYUpVp6V133VVTAxq0y+h2NdHZpHIiwAK83UZu0S24AR2SnrU5T4ABDMAjPnT8A2DC+7ZOlnU0UiNAQc9vnEo4efKGovit29HCJD/jwq7kJgwQExfTJoSND2tymUpLd9rUTEluG2XwI+lVUNbvVjKnrQp7fibBAW2DtlD/vOc97whokeR0buBhQwFAARtrZx5RzZ3OhJe32NE5YnTqqadWiY07sCBdAZB2ChoQsnFgWmy9S1i7mO31K3TR4ovdTiuJUv5sGgDdSH9oAnSx+xaeGT/fwqBJWNKmeAFnu4s8iTo42jhnBtxSscz1qkfSmkIc3gk9/A9YS65zHbYvj9m0WG9anW73cUD7MAV1JtIam2+g4UiF3VNHLwBNwMCUNLuqSgsUWiW8p7+d3TQtBZLCAzhxMIFIq0ht/uTIGh1g/Zu/+Zu6vgdY7GiSyACX9w+tBQJj62PoHSkxHSV9ojOFtvsr/0CTNOoIiHxkHVGZHA1BDxjliXQGvOXbuhueUMpDT6uaKXDLKLM5ZquoxbK4dKjMzR8ornTRC4sHy5LL+MVVr/FTgc2l10NNOwd0XNJWJCoAxI0ZMOKfTt6ayua7Vb61UYADmLzxZ4EeKIoHkCS+hDMVJSE6kkFiMhU2NXXWjXYmzdlQmxPisvZnTcxxDhsdQJDEx07aBFKeIHMg3rdD687MOagOEF/72tdWAHSuUz5NRQGhq1mkR9Nx+WzVsJyt307aZwrcjJRpYMNRc20mA7eFslRGgOaVkeUyV8GuvjhSv42qD2+wa8fbKXYrBwJi2hLQ8c3OTDtraeIWc1y5gQUNdGwmkJpsTAAqaYifFgcF3E444YR6wN2xE2HQORdHIqNNEU2HLfIDIaBp1xZNwO0d73hHTVd67p6Svly5AoSA8eSTT67T17woolwOsZtCOzhvfU1cKX/KJp9tfuM+DebMgNuQmRi+cSUMACOhjfSyp5SOTEu75LZxnu7eEOm4SpAOHIALgIUm7ikt96jWTnJrAVG8DtT620ov5Zq2cgsd0LJ4b2MBADkTZ9cSWJlKmjqSAoHam970proD63gJMEILkEhq6AEjwCOBicM1Lf894lsaprfCAEa3et785jdXiZEEpwyZGYUXyqcsJDlu06ZmFtw2z2iNciW9+Vh7yM6BcRwAGsDBdA/IACE3EbIrCsBIWs6WmSraULDjSlrzB0hAzfUqRzQcKiZlkdzEAcgAmjVDU1ZTUgDpepa1NWtv4jZFNXW1HufvM+3migOwAk8ANk7JO1DLtH0czU66dXDbSe73tPc8BwAHiQhAABLTRetgtHUzkpy1MBsaprMkLhsDFvkBok0BkhUJDSCaatLouAuHlhY/d7RomOIErr5tIlh7c0/VPdmA1jhwA2w01dqnqUI7uE1TbfS87DkOAJBM99hJQoDG3VJ/eUkCA0rW2WiA5FsY38Ap4ZmAKjrglLDC0dyZ6ACTOEh+uUMqfYAW4A2ItZXTuqHr09KWO93eOTCjHGg7/lpFRAsYAA0TUAS8HCvxIo4NB5IUkIo/OzDzHbvwdIAvfvH3HT9u0rZp4IUex0ZIgmgSD5MaV57kO/7jaNYq+6T9u+Q2aQ73+PcUB9Lpj6azAxVgB4hIatbHrImZNuYoBr/QJK2A0ZDhAbmAlrCmq87NOV4ifumgo1aKZxjvtH93cJv2Gur521UcCNAwY99oAYBLpCwmSc7ifs602dXkRvqiA0YrpQfM6ICc8M7LAUxHTcQV4Fspjo2WYRroO7htohZmqQFsovg9yCoc0DYAxVa0kcQFmICY2wyeADeFtEZmk4D0linmMM2E5y8Oa23efrMTmlsXmQ4nzwHKVYq4a7w6uG2wqlS+BmEUHDamDUbVyWeQA0AE6Bxt+2jblri0uYAZycs6nCll7pmGPuAUYAsw2iUlqTlPRwoUZzTa0Mc+C1XTwW2DtahBWJ/QaLrqHBhyALhoG0DiaFQbPoDDFLc0gJX349xRdcPAkZGAFZrYSW2mnp7wz5Wr5JHZppP8jnOL324yO7htsLZUvAajYXTVOTDkwCSBQdxpfwDMIOt2gvUztxuAGHdSnimoQ7/OrLlv6tBvJMqA2iTzOuTLTnx3cNsE19PINhG0B+kcOGoOGFxtAgAx2qFewObqFClO+/QfCm4buPXggnwO67bAhm6WB+kObkfd1HoEnQPbxwGAlCknk6QG7EhqpqaeJHJFi3Z1yy2FHNpFh57eCwN0B7fta5c9pc6BLeMAcGpVvklxrlCR3Eh1cUe7FwCt5UkHt5Yb3d45sMs5QHrzCojXd0lqe1l1cNvLtd/LPnMcCLhZZzP9pFrpbeYKvEqBOritwpzu1Tmw2zgA3NwVBW6zvFmwnnrp4LYeLnWazoEp4wDgysZAmzXg5gYDcIvExkQ/1K0/e+gS3zh6brtFdXDbLTXV89k5cJgDQAiw2QW1Y9oq4ObBynHg1u6ysluTYwbExMctIBd6admcYHLjvxtUB7fdUEs9j50DAw4EgIZA4zqWQ72eSOIXDZiAmIO8zsjlOwAXIAt4BfBCNzQH2ZnKzw5uU1ktPVOdA5vjAHA799xzj4BbQAlokcy83Ou5I9e3/E+CoyOALKBml9Uz5P4eEDA6/OsgsL8Y9C9dbkUMAXVzOZ18qA5uk+dxT6FzYNs4ANz8o5X/MaWAFvACcp4w9yoI6c2T5M7DAa1Id2g9Xuk/FN7whjdUu+moWw/+f8GUV9yude0G1cFtN9RSz2PnwDo5EHAzLaUAG/Aiobme5Z+2uJmOeuX3O9/5TvUPnSfG/U8pWq+OAMEbb7yx/vsWGv9x6o9k2KdddXCb9hrq+esc2AAHgJuXQlpwI7W5OO8PlwNipLQPfOAD9TVe0XOnTTv9a33+99SB4Bbc/FmNaS9wnHbVwW3aa6jnr3NgAxwIuNktpQAWIPJ3gP5wmSLJATzTUk+Nt8pdVH8VaApqGnvsscdWULQWJy5/FeixS9PVaVcd3Ka9hnr+Ogc2wAHg5vkjEla7luaf5v3PaYDN5oL/NfXvWpm2CgPU/POWaez/a+/On/Uq6jyO/2eWlv5siWvhBnEBXFBcSyoUogwJMQhaKdcBqgbEBdFRdGAsGfwN84OOCr9MpCZAaUSrsMYSQpab5Ey9+uaTdE7u8iR5Tu59nnxPVafP6f18n9vvfLv7232EO/l3x44dw9NPP92A6GPPvmwPjtv9Krht91+o2lcSuAAJgBtTkMBNVpCicdHcLBjQwKyYGpaaP7Mi6gPNd911VxvOOtTSOXEASEP7/e9/38I9P/zww20RQhnb/Sq4bfdfqNpXErgACQRuMeIFNiBi20b7AjGrpebWrKiCnHvpDV3dWw1lKiIPoMUxBaHVWXRYhKvgtgi/UrWxJDCjBMZzboGbeTdQAzNwMqy0qMDnYtgrDMyE0drk49wDHn8RtDbiKrjN+EdTyUoCiyABphts0QxLXeDm6oEkLOEBHD/h0iZcmGfOvXBuEa6C2yL8StXGksCMEgC373znO22YmSwBWZ6vFL/gdqX80vWeV4QEwM3Hm2MKckW89DovWXBbRzAVXBJYRAmYF/v+979/xoh3Ed9hXm0uuM1LklVOSWAbSCBwK82tFhS2wZ9jNaEkMD8JgFsNS1flWZrb/P6uqqSSwJZLwJzbQw89dGa1dMsbtIUNKLhtofCr6pLALBKIiUb8jfLQ3MDNXtBZ0m9U1qLHFdwW/Res9l9WCQQYvd3Y1A3o64zNWezNxj4jXsPSgwcPnjHQTZqx4W5voMs4NzsR+Ix613IMgTlbtnqX8PiJs+PBZnw+42G7HxyYqb6pr4Lb1BKu8pdGAsASS38by3XSsbOHc+zs5xTG79N7tmOAU15cwuI7vsg5bPZ7OorINqrf/OY37Rgj57E5cJL73e9+1zbCO+3DNilh0sY5cJKTzmkgtmLZW+qkXQdSOoH3Rz/6UXP2kIIkZ6/p9773vXbPQNjG/Pvuu685RyJxwhyFJJ7vOw6cL3HZw7pv3752ftxtt902fOELX2jvMvUfRsFtaglX+UsjARoUrcbX3HXcH/7wh80xvQADp2X8/Oc/bwc6OtSRe/TRR5v72c9+NnDS/PjHPx5++tOfNgD96le/aqfjOmbIOWqce6d4iHNwJOiADICAh7q/+c1vtq9cCROn/kceeaSBSHvSlscee6y10VCVcS/wAJMvZDm66O67724b5u+88862sR54uFtvvbWdxutE3s9//vMt7Pbbb29pbMDfvXt3O1XEgZZgCl6ce2FO8925c2crwzlyH//4x4ePfexjDXTaCs5TXwW3qSVc5S+NBMDNEA9wdOJsJKf1ABewuQeUwMy9DekcbcoRQqAVgMWPBiVNIAhStKJAQ520IPD4+te/fkY7cjglYHCAC55ARwsDPiD88pe/3E7XBSbAuvnmm4dPf/rTw0033TR84hOfaMchCfvsZz87fPKTn2zhYPSRj3ykOffCP/WpT7W0yvjiF7/YILdnz57mA96uXbuaA8s48eoHR8csOfzyt7/97ZktYFP9gRTcppJslbt0Esh8F1DReEDmG9/4RoMR7Yq2FLjR2Ghu0oIhqPENAQHNybj79+8/4wwRhfvGwZNPPjk88cQTDYZgx6Uc4eDoHDZDS5Aw7Dxw4EA7XNJc23PPPXfG+dCL0z8MhzMsNkQ292UY/NJLL7WjxM2J5RQQc3PjOUVgd8W/mB9XvQANbobGl1LWLPUX3GaRUqUpCZyWgE4PPjQgmguNKxP2OmvvZJE+YYFjOnXCpevv+2dl9+kTl7LiC8+VsJTJF5bn/j5hfZrEKy/hFgBAz5wjSFkw8Jwwft/WlBFfOUDruw0Ft/xS5ZcEtpEEdFJalnkpwzCalDAXP06n5nT4dPA+LDBInGf3IJIy5AUTftJ7ds+5z7O8CQuIhKX+Pm3iU6bnHHmUcrQh+ZWReIsaFhdofsq0Opo2KC95+HmP+MxTDE/JrzS3bfRHXU0pCaTDW6G06ufkWkNP4bnSqXV00ODAIQ4IAgD5Ahjx7mOG0YcrQ75ACGhSrvDkEcZ57oGjLM9s4NIObRAGTvK4Z7KhTe459+qSRpl8w29gSrihLsNh8eph7mFobLibd1IOF7gZfltQEDblVcPSKaVbZS+VBNJJmVhYCaSF9HALMECCZqODm9cCAN8mcG9Ix7RDHFgAgHyBkqGbMPAACosW9omaE5PG/JlnoPI9A4sY2vP3v//9DJSU7YPL8rhSHuhYKTWctiBhRRaUQMdqKpMPCwIABj6+ucCUQ13m9CxumGvMe3sn84bvec97GvAA0UqyBQpzggFk5GYu0H8I6jVfWHBbqu5RL7PoEtAhaS633HJL6+iBG0BFc7FwwNTDKqGVTmlAwmKCfDo3QFjZDLTADBBuuOGGgSGuskASbD784Q83uEgDOg8++GCzd2NeYZho3s/wOIBkywYwNMxoZRYwADkfVzY0tKoqv1VNkFKfL15pL0ipF9DY2JljpHFpF0hbGNBeCxXK5YAY0KzyAnqglt8cuL03c5fS3CKV8ksC20QCOqwVSqYQVkvXghsNhVZGy2GmAWBAAHpMK8BL3Pvf//6mwQECLYjG9JnPfKbNSQkDTKuu6mICwqiXRghK4POOd7yjLW4Io9EBmXqBA1jZsqnb5L/8VnOjXUonH+iaOzS0FCe9e9ol0w92dFZqmYio3/sDHBMTH24WBuRkwdQj76Hs8eV0YOkKbmPJ1HNJYBtIIHCjqdBeDAuFAQMfSEDGPS2FjVnmnti8GcJZLWQ3RgMDCkNDX5iiGTEZARRamjLAjekH0NACDWvBDSCt2r7uda9rIKNB0bwMZZmj0A7f9a53NXgCjvba3aBtqVObaXhAC3bihIkHLaBl+EvDZN+mHHHeRxvYyNHiaI5gSCtlYMzGruC2Df5YqwklgQuRAODQ3FjdgxuDW5dwnT4g88zswS6AhBuWvuENb2hDT+GgBihA5nN8gGElEvgMF13CnnnmmQama665pqWj4ZkHk9c8mvTaojwgpI3Rtq6++urha1/7WtPEaGfaGnipE6jAyJDzH//4vzNtFw5aYGVHA1Ay+AUwGqV6zdll+KkucDQsBW9zdeb9xhfNDUhLcxtLpp5LAlssAcDiaFngpoMDTcKBA8gAQJiOnK+zC6dRXXfddQ2OYGEHgWGgOTwakuEkrY6WZhhJCzT8M/kuv3myq666qg11LRiYU6Nh0fhoie4tCtDQwEX61772tW2+DtjMoYmzIGGBQBnPP/9Cg9uTTz4xvPAC49+DwzPPPD388Y8Hhltu2dlA+eKLfxnuvfdf2xCcRsZo2Hs9++yzDa4gpz5Q1H5tX09zIxPtqjm3Lf5jrupLAmMJgBZN6nOf+1wbPoJJ4CZtNCNzYIBj7kvHBzFaGK3GxLr5N3s2lQU8OjyA0YAAjamJ1VCalR0KQAeaFg4MXUEKHAFTuRYELAaAiyEr7coKKo0NSGhi5gelV4b6pH/llcMNVo8//h/DL3/5i2H//qeGZ589MDz//MHhJz/59+EXv3h8eOml1RVfMAVidWmbd6KNCVeXOgHO6qv2jq9obtoI2GQ15VWmIFNKt8peKgkEYoaMNC+b2GlcwnO512kNF0FAR7ZyCDi0JSuPYAcEfBqOuSxzZRmmejaHBkjy0sjEJV5aw0pwkVY6UDRU5YMgUAKMNNImvXjhKW/1Xln/HA4fltac4ZHh+PGjw+HDLzd35MirLb9y5VdW2uI93AsDNk6Y+sdXv1pacBtLp55LAlssAfAytwRu5qO4Hm46OghEKxEX2Gi6Tg8Awvh9WKCQeGnl53OJF6Z8LmlTR8qXNmEBGV/65JFWGUePMgpedSdOMOD1DkeHU6fUC1TaC1pnjX6VIT/YKTftU577Xib5ycCN2YkFCNqktFNepblNKd0qezIJrNV5JqvsdMHq5AznwM1qp5XNhPPT6QMOYens7l19+tzLl/veBwDP/MAg8Z5TT58u8fy0J/mTLmWu+iBn65Q2ABo4rz67HwbvvdqOvj7v4rl3KT++8nP1cGN3lzSJn7dfcJu3RKu8SSWgs8RNWtE6has7cDM3ZpUzV9rV+4m7GD/lrJc38fGlA5o88wOQPmx8f/LkuUBbWWHKopxV6K3C7dyyArmUpR7OlfvExTcXxyjZ6qt5urRtvfe71PCC26VKsPJfFgn0HeayVLhOJTqq+TSamy1LtjP1nVT8xbRVvv7yHID04e5TfnzaGefZUJTvUkacsHEdKZdWRlMDNZoaF7gNg7JW86YsdRj29vW475/7NsknzoKCBRYLGgW3SL/8K14COroOlU68VQLRDiYQjF+tVjrPTRiXzq+N/XPCA4B5++oDnPhZNGDUa5HBgoSFCYsXXH/vmWHwX//qyPQ/N//FFw8Nf/ub9I5H/8tw6NCfm/mIYSWt1Q4MWhg5WDW1UMJnWmL114qq/a6cuTVDUL7VWrst2PvZsUFGZEE+U1yluU0h1Spz7hIIIKbqCLM2WP06ObjZPWCYpbNbBeXT6jiLDjo7mzCdXQdnvGpI5kBKjsGtyXX3OjzXH05p94M6bG/icwnLsziQZWtGkzQPaFcEA2JmII4L11Zbva699trh+uuvb0d+M0lhiiLNV7/6leHb33bs+L7hrrv2DvfcY3P8XcPevV8a9u51yu7q6bo5fpzRr4WBHDvO5MXuCbZv6uaYsDAm5vwH4JmWq51MV7JPteA2619epSsJTCgBYKMd0XTsCqB9MFjNx1PMwblnHmJPqQ6dbxXYU+mIbc7JGIxZOTsLGAMHDIGEcEM4J3jQdtjVAdP73ve+wU4FOwHe/e53N3/Hjh3DBz/4weFDH/pQ2xIFZrZL2T4lH+cIcaADJEDTDnXYwRAA2STPvKV/H+8EmsLY9IGT7ViAClIga1sZKIMzWHPAHViz47OvVd6cPCKOLKf8z6o0twk7QxW9fBIwlGKf9sY3vrHt12T1Dyof+MAH2u4D8Hnve9/boANAb3vb24Y3v/nNbWcB/61vfWvb8G7T+zvf+c4GKloVONlUryy+Ez84oLJjAajs5XTP0bzsFwUrAAUcgLE1zA4Ew03t7B17OM4wNcNRQ1SOXR03HrJKx8kTl3L4ymdrx47PhnvDYM49J5yThqEvx4AZAJmQ0NymugpuU0m2yl06CdAydEZzWUADBIaoNDmdlnFtbNGkm7LjbiRc7Ry7tCfh8ud9EicMvLlc0iQsfuznxmWIT/nxpVF+5OLZMNywVDnSTXUV3KaSbJW7dBJIR2fVb7V0rWvcWfPMz6S/+wDFfZ7BQXjCDNsCFOEuccIypPOc8L7MpO/jWsLTsEnZ8VNvDH3Tht5PvX2evs0pf+ynzWkrrc38Y95hnH5ezwW3eUlynXLyg8ZfJ1kFL4gE/I62NJnTWusKjPjScoFCLPmTBlACivg0nM2ulBt/s/Tik5YPslZU0y51p/7+vs8j3BartD3p+Ek3SzukobWBW2lus0psm6bzw7vyv+o2bWY1a0YJ+D1pbmvBTZzfWaeNn47PBwJXwvr7hMnXh7eH0T9J2/ujJOc8pky+PNoBoubmzIUJD+is9JozE9bnSx4b9s2hsVkDyMDtnAo3eQC2GpZuIqRFiM4foLbmj2UR2l1tXFsCfk+am0n9/spvCxjMQgAQQEy4m0DXmYVbfbRp3NDMiqqFACuUVl3Ziyk72lH+dgKasS9e2Dhdhr9JHwAlXLtokfbF2twvvzg2aqBtoUAbUi5fGcqz4OFdrKBms7/wC7kcJsAkRp3KnuqqYelUkj39PzRV3gR0/ggnrK6KvkwSGGtuOqjfFxCsLLIBYwtGw7HQwL6LKQQ7MTC58cYbm1kEEDLjEOcIIqYlwONvhq/zqyub0/mcsGhaVjDVAz7ClelZXuVksUN58kovTFqwpYFJp93MN4DH36s0DHWdXSeNMgHZyi7zEe/o3QLiCxG9OiwqaFMAeiH5Z01bcJtVUheZLn90/gjqWg4J0Hr6BYXAzW/N/IHtF2gxZqW50dZoO7QzR4PT1IBDPiYgNDuwYQQsjg2Z9LYp0XCAT3oGusLZi0kLPM5nY/lvhwB7Ms/qZ9aRPZzSSwtOdgo4OZdhMZszddt1IC/NjY2eeh3CSYsTzgjXMRAq2VYAABRbSURBVE+xu2Mf5/sJ4Aais/xte9dc3kdbwM0lfx+fdJfqF9wuVYKb5Pejcf5nv1D1fZOiK3qLJLAW3PzGOim46bxgwM7N8A1cfNCF9pPP+hl++ntgH+fwSR0dLF7/+te33Qx2NNDo2K0x+pWfXRufQTBAMf4FTLshaGzABWLAA3BARQujoQlnzAuiTFjMtYEl49yHH3642cpJa8hMwxSn/cIY/BpCv+Utbxk++tGPtnBHkBu+ghuobwa4Hl4Fty36w513tYGbcvsfeN71VHmXTwLrwc3vC2AmzGlOQMTY1w4DsAsE+KAAbgx+aVsgAm6vec1rGgCBgwYFPrZJ0cwcbW6ImG8kgBQN0RAYwDK3R7MCJ+kyPNUmBsUgahgKcqBr+5a0hpmAZ7uYe1rd29/+9jaUtZPCkJlPuwNV84Pm3LzLLP9p93/7BbfL97c6eU39Dzt5ZVXB5BLo4ea3jVMxQJhPAiFgcW+blO+FggoNJ0AQb1hq6KdMQKO50cKE2YXg9AyaVDQvw9N8u4F2BzL2kdKuzIfR9Oz1BEyf46PBgSSg2PFgvoymSNsDN0NmG9xpexm62ulgD6tFE7CmHZorFA7atl2ZvwNKbha49T9Kwa2XRt2XBLaRBHq49c0COdqUvZY0KfCi3dCoDEcDtcwxmY8zbKUV0dwA0fyWtLQ+caBiTs0mfMATBw6AlNM3DEdphkAGoubamHQoF7z4zDuEGYKatwMteaQ3RDaHx8xDGm0BWFqa9ktnIQJ8AVo7Qc379WDvZbHRvfZnQUG6yGOjPBcTV3NuFyO1ynNFS2A9uBEKjQY4+DotrUZ6IHDPBQjCgYUDC3ncJ72hI+cZVOKiMSlTHvHqSrh7cXzlpW71pk3a0d97Dnzd55JnfAnLe4zjZnkuuM0ipUpTEtgCCYBJv1qaJoyBEcAIDzDiBxCAEqiADed5DJ5x2UnTAyth0qo79adcaQEwz+KFpYzULb+wXP19wi7FL7hdivQqb0lgQgnQoMZGvKoLJHoQBTj8QEM6970LcNZKlzh+ynA/Lif1K4ML3ORJXuF9eX27+7ojPmXO+wK3MgWZt1SrvJLAHCTQa246fyADGsBnLs2clbkpziKD4SXYBE4BUPJIL18gxO9BFECt1fy0QVzu46+VfivCtCeXOT/2frRI4d61j0+6S/Vrzu1SJVj5rzgJgJvz1XLpmOADRib8LQqYyDexb6XSiqfJePHg10NOXp3caqWJfx3dszTqCeACxSkgkPeY0k/71QFudkMU3KaUeJVdErgICYzhpogAzmICUw0nzZrst8rIfMMKJM2MBqdTg5iVVWEAZphrZdQqq0UAYfInr/QAwS3i1UOZzV3BbRF/xWrz0kugh1vfab04kwuaGzszQ03DL+YVtDimGj4FyDaNKQQNhmEssw5ws/PAPlSb6X18xdHjND8b3EES4LhFvHo59XNuwr1THz+v96th6bwkWeUsvQTSATeCm+1XNDc2arQTRrMABWLsxewIYAfHSJZ2xnCWtmb1Vadnz+bbC3YkKINtm61OTvw1VJVnEa/ITtt7zc3zVNpowW0R/1KqzVsqgR5ufUN0YMNP2pcObPhpmApuPvRCqzMnZ27Nl+oNUW25kse3EgI3m+dperfddlvT6sCNtqfeqUDQv8dU9wFcwW0qCVe5JYGLlEA6J8iAUT9EFAc8Fg5sdAc0l7S2OvnoC23NFiZws4ndsNMQ1C4BG9Ld27huryitzcdmbJFyOoeha+bq0o6LfI0tyxYwg3jm3DQm4fNuWGlu85Zolbe0EgAVDrB82s8wMZcOasho+EhzY8eV3QPCDTcNPc3FyQd49ozaQuXsNHlsVjccNcdmO5RtW+Lltfgg31QgyHvM1z9r/qHcQJnmFlMQ4VO9U8Ftvr9mlXYFSCCaGz+XDgo+TD1odIacVj2FR+Nyr4OLjxMGfnl2LywuedUljpvHFVDHV3/qzL16hAVKG9drFZez4LHW/VmIgZvV5MhPHVNcBbcppFplLqUE0skBx1ARyHLpoD2k+mfpgY8LTPjS9C6Ak04e5fW+cOk3u/o60uY+jzJSl3BpPCsfcLxXYCpM3MYXDS1Q4/f3Ad2q1qscw3KabcFtY6lWbEngsktAp3ScUDpnDyogyLOG5R4k+mfheXbfPys3Q9qW6PTJGcoQnrSJu1BfGwNioHPyR4yLwdRzTtlN+OZ1ZAjK7+9Xc/ZtZtRswSTymwXYm9d/forS3M6XSYWUBDaUgE5pQQAIckUbct6Zc9YsEvhWgDkz98w9zKPlCtDiy+8eeJRvlVX+Rx55pDlmJODGJc+sfuqMn7aqywquRQ5bxACPPZ0DMhkUA6kwTl2r0FrPT+lr+2mrWHBj51dwW1tWFVoS2BIJ6KS0mZtvvvlM59SQwCnHfzsF96qrrmrfIrj33nvbMMxBkunk8XXwQAssAcd8HYNfZTAEtqDAwJfRr3gOeLTDvfzMSTggUo54zj1QcuKkpZUpV3plHDp06MwcoTqczAtyNDiLHaB88OD/DseOqc/QOMPODDlnHyqTVb7+VXDbkj/hqrQkcL4EAqTAzYKBS3igY7uULVW0NUeIMw0BEpobWzVfmaK5WDXlMgRkGsEUhIYmrSPFraiCJkD5HoLjxpVrNRUwpQEoK7RMRhgMO2CStvetb32r7VdVnpN3GQMDlp0PAMzOjrmJyX0fsgExddAWpXVAJhibW3zwwQeG3bv/ZfjDH/57OHny2HDi5NHhRPOPDacGCxyG4gHcqma3KqtVbTRy47uUG80tsktcSzCnf2pYOidBVjFXjgTAxhHgNCBXOiitSBwNiUmHY7/By9APjGhfdiRcc801DWyMc+1YMCx0mi4wKhfkbrjhhgZJZQKcYeL111/ftB7fOABAOyGYlzhW3FHjN910UwMU0Pm4DI0MDMHUB16Ylogz3wWINChQ81UraQy1aVPa4Whx4PvSni8NL7zw/PBvD9w/PPb4o8OpUxYdXhmOHT/cnGfu2PFXG/iGYWU4eerYcFL4cLxB0L0hrf8AXGz2MucW2RXcmmjqn5LA1koAwAxLaUK50knTgWldvh5FizM8pD0x7qVJMegVz5gV9OxFpXEBC22OcS+jXnBSnvps2ZLPEJWGBprKetOb3tQ+6EIbMm9m+xdjYfCgYdIaPdPkaGu2dlmplBbY+GBpOOqDy9oqXDpzh/fc85Xh0KE/DQ88cN/wxH/953DqlGHvKthWThxpAOMfPfbycOLkkeHkqSPDyolXhuMrrwwnT706HF8R/upwsuVbPeLIPKT6vG/kVnDLX1L5V7QEdATazFZdOqUhoSFmf6Wjaht4XX311U1rAxlaE+2KxmWo53sFhoe+DwpuYETD8ywtuJjYN+y0Zev2228/871TGqAwQ8fdu3c3OJmfAyPfXqD5AZp6fQMVLGli6jGkpaH5loL04Kts+Xbt2tXyGprKL95OjP37nxru3HPH8IMfPNQ0tOMr5t4yJF05PUQFsMDt8LBy4vBwcjgyHDv+z2HlhBXe1RVa8qJNGpZqX2RWcOv/kup+qSTgj7v/A+/vvWj/7N7Qb6sucKO50XD6K+0CJEaq1157bZtnAy0LBABD2/LFKxqaHQk+iGxIarhIezMPRpsCLwACGcAzzDR/J9ynAqUXTntUps/52ZNKU1MXR4szDPa1KvUBnZ0OoGooTDNUJk1KWu8DaIbUygVvWp42GrYeOPA/bUFiVTs9u2p6ajjVNDPDT+7ESbZxq/ADQvN05uSi1YKbHQq0RDIT3v++vUwv5b7m3C5FepV3EgkA10bw0hG2SnNTN42DnRuzj/Glo4KZiXuQABsLD0Aivfkmn9gzh2Zo6T3kMfQEFO9tng1AhavLvXj3yjMsBUDx0iuD7znluVdO4OFeWPLkPuHj/MLVGVn3dUh77uU/JoA619mpsBp2dmFBPt9GpbkFbuqY4iq4TSHVKvOSJKAjcdvx0hHBxtCOFjS+QCPtDxh6n5ZlWJmV0MAl79tDRz2BDh/c5KPdAWXik0Ze5XmOkydtShhfOnUmzr12jp+FxXnXvNv4vS0Y0M7izm7BAq7VspMH3My5aVtfduLn5Rfc5iXJKueSJOCPfBEu7Qzc1tPcaDwgENAECMLZmxla0tp6kACOdMK45M2zePXKR8OjDfb5Awl19OH9fQ805aXspMmzsrQlftqfMOGzXGlT78tnWNrDbZayLiZNwe1ipFZ5rmgJAAiTDR9/6S+dWFwgEhgEHj3A+jjhtJgALXHKA7RxeZ6TNr56OXm5hKtbOa61fGHj8P6dcp80eb5QX35tcZlbtIBSw9ILlWKlLwlMKAGdFETYl7EV6y9xQCXefJsz3cwt2SjOJk54D7rAjg9GOrt7vkUGCwYpj29xgYEtrQ0Mky8gs7OBQa461ZX29G3cqvseblaKaW7eMyCfol2luU0h1SpzqSUwhpuOG40JdJhyMLDVic2xMdOwkCBNNDFA4hIGTOKYilh8oBXa0dDHM+lgTgIKnFVZ+dSZsJ07d7aV0tQj/3a4eriRCQBru/aJm+IquE0h1SpzqSUAbj7tx5LflY5Lk6LN3Xrrrc26H7x0YGHm58CKqQU7MnNvVkxpdezVwI8pBhs4Hd/QTTiAgSSTDjZtFiOAjykF8wzmHbRC5YIGjZLG12uJU8HjvB8Zo9ZypxMGtAyRmZgU3M6TYAVcyRLQUaf8334z2ao/cPNVq1zCOTsFbJ3SgcHOMFR6MGOUa2gJUmzLnL5r+xV7NxoZg1p5gcyclNN+aXHSqWvfvn3NGfICoHTSAKFy2ar5VoN7YE3daeN28bU3cCOzqa7S3KaSbJU7Vwn0QJuyQ2zUaPVqB1ix3GfcOr7Mle3YsaOtCGaoCHIcoDlxg3ZF6zJctS3L3JzdATSw7F6g0d14440tnb2fND9Guox1aYKGvjS/6667rn2PgMGv4amPO4ObusEN5LZKXmPZ5BncHBSQgwcSPm+/4DZviVZ5k0ggHTRw0Wkv96UNnPksm9THcNM2Fv82sgOMzssZRkrra1Z2BlhppXnZDgVudjMYyjLxAE3PgAdcNEH57EMFQ1qf0zsY8gKpNLQ8mh8TCyeHGJYCnbZmAeNyy2qj+mz10mbD0imvgtuU0q2y5y4BHTaa0NwLn6HAwI32ZRfC+AITw0ab5C0qfPe7322wslDgq1agBFK2QBmOgp3TOQDLsNK2KWCj5dliRWMDAunkofHQfKyagpt5OUNW8ANKaeQFDm0F3O12gRuAA782TnUV3KaSbJW7dBLQEQM32pfdAuML3DhDR0NL82I0MkNZPg0OxNybh6PpAZFhJG2LVsjPnFlWPT1zyhEP8J750c7iJ1zbenik/eM2X47ntINvPtKw2mLJlG0quF2OX7bqWCoJAIxTQax+rnfptGATLTNwiq+MsQOtgCt5A6q+HPnEp47c51keYbS2Pm69tl6OcG3LFRvAglskUn5JYBtIADDAwxwZE43x1Xdicf2ze/l7332exSU+5SZ+Lb9P098nLbAFiu638tKmXIbzTFkKbpFI+SWBbSABkKA5+aAyu7KNrr5Db5RurbgA6kLjpE9eoDSs5UBuK69eFuBm7jBwm6pdNSydSrJV7tJJINCguTng0cS+ay2NaytfPiDRrgx1t1pz6+UBbhYUAre0t08zj/uC2zykWGVcERLo4XbHHXe002u9OHBsJ3j0P0baPBVA+rpmvbcQY0W44DarxCpdSWBiCQQUNLcebtHcJq5+aYovuC3NT1kvsiwSiPZjzq0flkZzS/x2ed/AuPe3Q9sKbtvhV6g2lAQ6CYBEJunBzYmyro3g0ceN76PxjcPznLKlSxi/f+6ad06a5E2+tZ6TN2nip12JT974Fif6NsiXOPfJ35fnP4A8W2X2NS/HsSd9K2DO/9Sc25wFWsUtrwTSOWlu9oLaIeBKOL+/xs+JS3odvodE7ns4JE3y9nEJS3l5Hvvjdoyf10rfp+nvpR0/z5Jfu118OxRsEWPErKzNyhuXP+tzwa2T1FRC7qqo2wWXgM7JtGLv3r1t21Q6Z3zx43thCc89aJm7U5YVzWyyv1Df7gbOViYT9JyjyGlFHID4mIydEL754IhzH5nh7KJwbNNzzz3XnG1cnK1idlLk3rMVTsNJjhEuQDGFsdXLTgwfcHbSh50HvrSVPbPs2Wwfc8yTY5nslbVlzPYx7ZyyzxXcTv9PlD++Be971fyJJeDvBIx85Njn9gIEgAAKzkZ58AAS9+KkAxNwYEKio9sH6hgkJ4X4TqkjjRxIaUO98h11JNyHm30x3keVhd1///1nXD7qLO/dd9/d9rTu2XNn22BPu7xj1x3tGCR2eRZBQNmZcDbaO2GES732vapXXb59mk8EOgSAAyQu4d7f/ti0S9603fdRxdHQvKfVUbZtQAeE4Jnh7VQ/WcFtg2EFoU/5P8tUP2qVO40E/C3QuHRKxw3ZFK+j6/i0lXRgJ37oxHGeE5YTP2g4OcsNBJQFdL4xCgby5jBLvs31nKOSegeSSUc76t2vf/3U8NSvn2qalTS0JvOEtC7aF9BGQ4v2BsA26ztbjtZH+4tGmFNO+P1+WLCPsbAh+3rQGvclz3FT/GIFt02k6n/qukoCkQC46ZA68HgIGYPZdPSNfBDonSEqFzAEBPGFq9uV+t2nPWnf2U/q2ZGwMpwafEvh7Nze2XTn32XIPI5JG8bh2/254LbJL7SoP+wmr1XRWySBtf6e1gpL8xI3njZJePykP3vOt/+U42abtFfW+eWdLXnR7gpui/aLVXtLAiWBmSRQcJtJTJWoJFASWDQJFNwW7Rer9pYESgIzSWDx4bby4jAcOzAMx/64gO7AMKwcGoaVvyzwO5C793hxpj+4ZUxkUt/pui+//Moyvt7CvtMSwO2vw3B0EcF2us3He7g9u4CAPv0eVzDc9P7xhP/CEmGJGr74cFuiH6NepSRQEpifBP4flaujg09ut9UAAAAASUVORK5CYII=;" vertex="1" parent="1">
          <mxGeometry x="86" y="42" width="311" height="331" as="geometry" />
        </mxCell>
        <mxCell id="6mBwAXPumIQYJJN-8M09-2" value="Sucursal (&lt;u&gt;n_sucursal&lt;/u&gt;, ciudad, activo)&lt;br&gt;Cliente (&lt;u&gt;dni, &lt;/u&gt;nombre, apellidos, direccion, ciudad)&lt;br&gt;Cuenta (&lt;u&gt;n_cuenta, &lt;/u&gt;saldo, fk_dni_cliente)&lt;br&gt;Transaccion (&lt;u&gt;n_transaccion&lt;/u&gt;, fecha, tipo_operacion, cantidad, fk_n_cuenta)" style="text;html=1;strokeColor=none;fillColor=none;align=center;verticalAlign=middle;whiteSpace=wrap;rounded=0;" vertex="1" parent="1">
          <mxGeometry x="420" y="39" width="351" height="330" as="geometry" />
        </mxCell>
      </root>
    </mxGraphModel>
  </diagram>
</mxfile>
